<?xml version="1.0" standalone="no"?>
<!DOCTYPE svg PUBLIC "-//W3C//DTD SVG 1.1//EN" "http://www.w3.org/Graphics/SVG/1.1/DTD/svg11.dtd" >
<svg xmlns="http://www.w3.org/2000/svg" xmlns:xlink="http://www.w3.org/1999/xlink" version="1.1">
<metadata>
Created by FontForge 20150824 at Sat Jul  9 04:19:59 2016
 By Everything Fonts
[c] Copyright 1999, Tobias Frere-Jones. Designed by Tobias Frere-Jones. Produced by The Font Bureau, Inc. All rights reserved.
</metadata>
<defs>
<font id="InterstateThin" horiz-adv-x="714" >
  <font-face 
    font-family="InterstateThin"
    font-weight="400"
    font-stretch="normal"
    units-per-em="1000"
    panose-1="2 0 5 6 3 0 0 2 0 4"
    ascent="800"
    descent="-200"
    x-height="525"
    cap-height="700"
    bbox="-41 -195 1183 884"
    underline-thickness="20"
    underline-position="-153"
    unicode-range="U+0020-FB02"
  />
<missing-glyph horiz-adv-x="500" 
 />
    <glyph glyph-name=".notdef" horiz-adv-x="500" 
 />
    <glyph glyph-name=".null" horiz-adv-x="0" 
 />
    <glyph glyph-name="nonmarkingreturn" horiz-adv-x="245" 
 />
    <glyph glyph-name="space" unicode=" " horiz-adv-x="245" 
 />
    <glyph glyph-name="exclam" unicode="!" horiz-adv-x="229" 
d="M121 144h-13l-4 227v329h21v-329zM137 20q0 -10 -7 -16.5t-16 -6.5q-10 0 -16.5 6.5t-6.5 16.5t6.5 17t16.5 7q9 0 16 -7t7 -17z" />
    <glyph glyph-name="quotedbl" unicode="&#x22;" horiz-adv-x="426" 
d="M320 469h-18l-4 231h26zM124 469h-18l-4 231h26z" />
    <glyph glyph-name="numbersign" unicode="#" horiz-adv-x="648" 
d="M459 208v-208h-21v208h-228v-208h-21v208h-132v20h132v243h-132v20h132v209h21v-209h228v209h21v-209h131v-20h-131v-243h131v-20h-131zM438 471h-228v-243h228v243z" />
    <glyph glyph-name="dollar" unicode="$" horiz-adv-x="558" 
d="M484 171q0 -44 -16 -77.5t-43.5 -55.5t-63.5 -33.5t-76 -12.5v-92h-21v92q-62 2 -112 21t-92 52l13 17q45 -34 93.5 -52t110.5 -18q37 0 70.5 9.5t59 29t40.5 49t15 70.5q0 33 -9.5 58t-32.5 46t-60.5 40t-92.5 40q-55 20 -92 38.5t-59.5 40t-32 47.5t-9.5 62
q0 33 12 62.5t36 52t59.5 36.5t82.5 15v92h21v-92q65 -2 108 -18.5t79 -41.5l-11 -17q-38 26 -80.5 41.5t-107.5 15.5q-45 0 -78.5 -12t-55.5 -32t-32.5 -46.5t-10.5 -54.5q0 -30 8 -52.5t28.5 -42t55.5 -37t90 -38.5q59 -22 98.5 -42.5t63.5 -43.5t34 -51t10 -65z" />
    <glyph glyph-name="ampersand" unicode="&#x26;" horiz-adv-x="617" 
d="M459 135q18 29 36.5 73t30.5 90l19 -6q-14 -52 -31.5 -95t-41.5 -79l92 -118h-27l-78 99q-38 -51 -91 -80.5t-122 -29.5q-91 0 -140 48.5t-49 131.5q0 78 45.5 133.5t123.5 94.5l-22 29q-16 21 -29 40t-22.5 37t-14.5 36.5t-5 40.5q0 30 11.5 54.5t32 41.5t48 26t59.5 9
q56 0 98 -15t80 -44l-11 -17q-37 29 -77 42.5t-91 13.5q-27 0 -50 -7.5t-40.5 -21.5t-27.5 -34.5t-10 -46.5q0 -20 4.5 -37.5t13.5 -34.5t21 -34t27 -36zM238 382q-76 -37 -117.5 -90.5t-41.5 -122.5q0 -76 45 -118t123 -42q70 0 118.5 31.5t80.5 75.5z" />
    <glyph glyph-name="quotesingle" unicode="'" horiz-adv-x="229" 
d="M123 469h-17l-5 231h27z" />
    <glyph glyph-name="parenleft" unicode="(" horiz-adv-x="350" 
d="M254 -111q-32 34 -63 77t-55 94.5t-39 111.5t-15 128q0 73 13.5 134t36.5 112t55 93t68 78l9 -9q-35 -37 -64.5 -79t-50.5 -91.5t-33 -108t-12 -128.5q0 -66 13.5 -124t35.5 -108.5t51 -93t61 -77.5z" />
    <glyph glyph-name="parenright" unicode=")" horiz-adv-x="350" 
d="M268 306q0 -74 -13.5 -134.5t-37 -111.5t-55 -93t-67.5 -78l-10 9q35 37 64.5 79t51 91.5t33.5 108t12 128.5q0 66 -13.5 124t-36 108.5t-51.5 93t-60 77.5l11 9q32 -35 63 -77.5t55 -94t39 -111.5t15 -128z" />
    <glyph glyph-name="asterisk" unicode="*" horiz-adv-x="477" 
d="M396 410l-152 94l4 -180h-18l4 180l-153 -94l-9 16l156 86l-156 86l9 16l153 -94l-4 180h18l-4 -180l152 94l9 -16l-156 -86l156 -86z" />
    <glyph glyph-name="plus" unicode="+" horiz-adv-x="569" 
d="M295 334v-244h-20v244h-221v20h221v244h20v-244h220v-20h-220z" />
    <glyph glyph-name="comma" unicode="," horiz-adv-x="190" 
d="M83 -80h-15l17 153h28z" />
    <glyph glyph-name="hyphen" unicode="-" horiz-adv-x="313" 
d="M52 353v21h209v-21h-209z" />
    <glyph glyph-name="period" unicode="." horiz-adv-x="190" 
d="M117 20q0 -10 -7 -16.5t-16 -6.5q-10 0 -16.5 6.5t-6.5 16.5t6.5 17t16.5 7q9 0 16 -7t7 -17z" />
    <glyph glyph-name="slash" unicode="/" horiz-adv-x="406" 
d="M69 -90h-21l289 880h21z" />
    <glyph glyph-name="zero" unicode="0" horiz-adv-x="651" 
d="M583 350q0 -84 -18.5 -151t-52.5 -113.5t-81.5 -71.5t-105.5 -25t-105.5 25t-81.5 71.5t-52.5 113.5t-18.5 151t18.5 151t52.5 113.5t81.5 71.5t105.5 25t105.5 -25t81.5 -71.5t52.5 -113.5t18.5 -151zM561 350q0 79 -16.5 142t-47 107.5t-74.5 68t-98 23.5t-98 -23.5
t-74.5 -68t-47 -107.5t-16.5 -142t16.5 -142t47 -107.5t74.5 -68t98 -23.5t98 23.5t74.5 68t47 107.5t16.5 142z" />
    <glyph glyph-name="one" unicode="1" horiz-adv-x="277" 
d="M152 0v666q-4 -10 -17.5 -20t-31.5 -18t-38 -13t-36 -5v18q20 0 40.5 6t38 16t30.5 23.5t18 30.5h18v-704h-22z" />
    <glyph glyph-name="two" unicode="2" horiz-adv-x="551" 
d="M52 0q2 45 15 83.5t38.5 75t64.5 73t95 76.5q54 39 88.5 68.5t54.5 55.5t28 52t8 58q0 74 -47 111.5t-127 37.5q-58 0 -102 -16t-79 -39l-10 17q36 26 82.5 42t109.5 16q87 0 141 -42t54 -126q0 -36 -9 -65t-31 -57t-57.5 -58t-88.5 -68q-57 -41 -95 -77t-61.5 -69
t-34.5 -64.5t-14 -64.5h399v-20h-422z" />
    <glyph glyph-name="three" unicode="3" horiz-adv-x="537" 
d="M467 191q0 -97 -61.5 -149.5t-168.5 -52.5q-25 0 -52.5 4.5t-53 13t-47 19.5t-35.5 23l12 16q14 -12 34.5 -22t44.5 -17.5t49 -12t49 -4.5q99 0 153 47t54 135q0 46 -16 79t-43.5 53t-65 29.5t-80.5 9.5h-36v19h36q45 0 78 12t55 33.5t33 50.5t11 63q0 75 -46 113
t-133 38q-26 0 -50 -5t-45 -13t-36.5 -17t-24.5 -17l-12 16q9 8 25.5 18t39 18.5t49 14t55.5 5.5q90 0 145 -41.5t55 -126.5q0 -37 -11 -66.5t-29.5 -51.5t-44 -35t-53.5 -17q30 -3 60 -14t53.5 -32.5t38 -55t14.5 -80.5z" />
    <glyph glyph-name="four" unicode="4" horiz-adv-x="573" 
d="M423 188v-188h-21v188h-367v18l364 499h24v-498h111v-19h-111zM402 677l-342 -470h342v470z" />
    <glyph glyph-name="five" unicode="5" horiz-adv-x="578" 
d="M519 216q0 -54 -19 -96t-52.5 -71.5t-80.5 -44.5t-102 -15q-32 0 -62 4.5t-55.5 12t-45.5 16t-32 16.5l10 18q13 -8 33 -16.5t44.5 -15t52.5 -11t57 -4.5q52 0 94.5 14.5t72.5 41t46.5 64.5t16.5 85q0 43 -11.5 77.5t-37 59.5t-65 38.5t-94.5 13.5q-62 0 -107 -17.5
t-72 -44.5l-22 8l26 351h373v-20h-354l-23 -313q26 23 71.5 39.5t108.5 16.5q61 0 104 -15t71 -42.5t41 -65.5t13 -84z" />
    <glyph glyph-name="six" unicode="6" horiz-adv-x="607" 
d="M554 211q0 -48 -17.5 -89t-49 -70.5t-75 -46t-95.5 -16.5q-53 0 -98 15t-77 47t-50 80.5t-18 116.5q0 76 19 152.5t62.5 140.5t113 109t171.5 58v-20q-91 -13 -155 -53t-104.5 -96t-61 -124t-24.5 -137q7 31 27 57.5t50 46t68 30.5t82 11q49 0 91.5 -13t74 -39.5t49 -66
t17.5 -93.5zM532 210q0 48 -16 84.5t-44.5 60.5t-68 36t-86.5 12q-48 0 -88.5 -15t-69.5 -40t-45.5 -58t-16.5 -70q0 -97 59 -154t162 -57q48 0 87.5 15.5t67.5 42.5t43.5 64t15.5 79z" />
    <glyph glyph-name="seven" unicode="7" horiz-adv-x="524" 
d="M468 680q-49 -61 -95 -134.5t-82 -158.5t-60 -182t-28 -205h-22q4 106 27.5 202t59 181t81 159.5t95.5 137.5h-414v20h438v-20v0z" />
    <glyph glyph-name="eight" unicode="8" horiz-adv-x="610" 
d="M552 186q0 -48 -18 -85t-51 -62t-78.5 -37.5t-99.5 -12.5t-99.5 12.5t-78.5 37t-51 61.5t-18 86q0 82 53.5 129t142.5 56q-33 4 -63 16t-52.5 32t-36 49t-13.5 67q0 42 16.5 74.5t45.5 55t68.5 34.5t85.5 12t86 -12t69 -34.5t45.5 -55t16.5 -73.5q0 -38 -13.5 -67
t-36 -49.5t-52.5 -32.5t-63 -16q88 -9 141.5 -55.5t53.5 -129.5zM500 535q0 36 -14.5 65t-40.5 49.5t-62 31t-78 10.5t-78 -10.5t-61.5 -31t-40 -49t-14.5 -64.5q0 -37 14.5 -66t40 -48.5t61 -30t78.5 -10.5t78.5 10.5t61.5 30t40.5 48t14.5 65.5zM530 186q0 42 -16 74
t-45.5 54.5t-71 34t-92.5 11.5t-92.5 -11.5t-71 -33.5t-45.5 -54.5t-16 -74.5q0 -43 16 -76t45.5 -55.5t71 -34t92.5 -11.5t92.5 11.5t71 34t45.5 55.5t16 76z" />
    <glyph glyph-name="nine" unicode="9" horiz-adv-x="607" 
d="M53 489q0 48 17.5 89t49 70.5t75 46t95.5 16.5q53 0 97.5 -15t77 -47t50.5 -81t18 -116q0 -76 -19 -152.5t-62.5 -140.5t-113 -109t-171.5 -58v20q91 13 155 53t104.5 96t61 124t24.5 137q-7 -31 -27 -57.5t-50 -46t-68 -30.5t-82 -11q-50 0 -92 13t-73.5 39.5t-49 66
t-17.5 93.5zM75 490q0 -48 16 -84.5t44.5 -60.5t68 -36t86.5 -12q48 0 88.5 15t69.5 40t45.5 58t16.5 70q0 97 -59 154t-162 57q-48 0 -87.5 -15.5t-67.5 -42.5t-43.5 -64t-15.5 -79z" />
    <glyph glyph-name="colon" unicode=":" horiz-adv-x="190" 
d="M117 504q0 -10 -7 -16.5t-16 -6.5q-10 0 -16.5 6.5t-6.5 16.5t6.5 17t16.5 7q9 0 16 -7t7 -17zM117 20q0 -10 -7 -16.5t-16 -6.5q-10 0 -16.5 6.5t-6.5 16.5t6.5 17t16.5 7q9 0 16 -7t7 -17z" />
    <glyph glyph-name="semicolon" unicode=";" horiz-adv-x="190" 
d="M117 504q0 -10 -7 -16.5t-16 -6.5q-10 0 -16.5 6.5t-6.5 16.5t6.5 17t16.5 7q9 0 16 -7t7 -17zM75 -80h-15l17 153h28z" />
    <glyph glyph-name="less" unicode="&#x3c;" horiz-adv-x="385" 
d="M53 335v18l258 271l3 -24l-243 -256l243 -255l-3 -25z" />
    <glyph glyph-name="equal" unicode="=" horiz-adv-x="581" 
d="M87 435v20h407v-20h-407zM87 233v20h407v-20h-407z" />
    <glyph glyph-name="greater" unicode="&#x3e;" horiz-adv-x="385" 
d="M74 64l-3 24l243 256l-243 255l3 25l258 -271v-18z" />
    <glyph glyph-name="question" unicode="?" horiz-adv-x="554" 
d="M467 551q0 -32 -7 -56t-22 -45t-37.5 -42t-53.5 -47q-26 -22 -43 -40t-27 -40.5t-13.5 -54t-3.5 -82.5h-22q0 51 4 84t14.5 57.5t29.5 45.5t50 47q29 25 50 44.5t34 38.5t19 40t6 49q0 31 -12.5 57t-35 45t-54 29t-70.5 10q-65 0 -113 -20.5t-88 -51.5l-11 17
q38 31 89.5 53t123.5 22q43 0 78.5 -11t61 -32t39.5 -50.5t14 -66.5zM272 20q0 -10 -7 -16.5t-16 -6.5q-10 0 -16.5 6.5t-6.5 16.5t6.5 17t16.5 7q9 0 16 -7t7 -17z" />
    <glyph glyph-name="at" unicode="@" horiz-adv-x="836" 
d="M779 360q0 -56 -11 -95.5t-30.5 -64.5t-46 -36.5t-57.5 -11.5q-39 0 -64.5 20.5t-33.5 57.5q-24 -35 -60.5 -56t-81.5 -21q-28 0 -53.5 6.5t-45 21.5t-31.5 38.5t-12 56.5q0 32 12 56t32.5 40.5t48 25t58.5 8.5q41 0 73 -10t56 -24v68q0 59 -28.5 82.5t-89.5 23.5
q-34 0 -61.5 -9t-53.5 -21l-7 19q27 13 57 21.5t67 8.5q66 0 101 -27t35 -97v-181q0 -43 21 -66.5t63 -23.5q26 0 48.5 10.5t39.5 33t26.5 59t9.5 87.5q0 69 -25.5 130t-70.5 106t-108 71t-138 26q-74 0 -137 -25.5t-108.5 -71t-71 -108.5t-25.5 -138t25.5 -138t71 -108.5
t108.5 -71t137 -25.5q42 0 75.5 7t72.5 26l6 -17q-43 -20 -77 -27t-77 -7q-78 0 -144.5 26.5t-114.5 74t-75 114t-27 146.5q0 78 27 144.5t75 114.5t114 75t145 27q80 0 146.5 -28t114 -76t74 -112t26.5 -135zM532 352q-24 14 -56.5 24.5t-74.5 10.5q-27 0 -50 -7t-40.5 -21
t-27.5 -34.5t-10 -47.5q0 -28 10 -48t26.5 -32.5t39 -18.5t47.5 -6q42 0 77.5 22.5t58.5 57.5v100z" />
    <glyph glyph-name="A" unicode="A" horiz-adv-x="654" 
d="M562 0l-71 204h-328l-72 -204h-22l246 704h24l246 -704h-23zM327 676l-157 -452h314z" />
    <glyph glyph-name="B" unicode="B" horiz-adv-x="592" 
d="M529 200q0 -99 -59 -149.5t-164 -50.5h-206v700h201q36 0 69 -8.5t59 -27.5t41.5 -49.5t15.5 -74.5q0 -36 -10.5 -63.5t-28.5 -47t-41.5 -31t-49.5 -15.5q31 -3 62 -16t56 -35.5t40 -55.5t15 -76zM464 539q0 39 -13.5 65.5t-36 43.5t-52.5 24.5t-62 7.5h-178v-289h178
q72 0 118 37t46 111zM507 199q0 41 -15 73t-42 54t-64.5 33.5t-83.5 11.5h-180v-351h185q96 0 148 46t52 133z" />
    <glyph glyph-name="C" unicode="C" horiz-adv-x="613" 
d="M548 68q-39 -40 -88 -59.5t-105 -19.5q-62 0 -114 25.5t-89.5 73t-58 114t-20.5 148.5t21 148.5t58.5 114t89 73t113.5 25.5q58 0 104 -19t78 -52l-14 -14q-32 32 -71.5 48.5t-96.5 16.5t-104.5 -24t-82 -68.5t-54 -107.5t-19.5 -141t19.5 -141t54 -107.5t82.5 -68.5
t104 -24q109 0 179 73l14 -14v0z" />
    <glyph glyph-name="D" unicode="D" horiz-adv-x="663" 
d="M588 351q0 -93 -21.5 -159t-62 -109t-98.5 -63t-131 -20h-175v700h179q73 0 130 -20.5t97 -63.5t61 -108.5t21 -156.5zM566 350q0 169 -74 249.5t-215 80.5h-155v-660h156q138 0 213 78t75 252z" />
    <glyph glyph-name="E" unicode="E" horiz-adv-x="532" 
d="M100 0v700h375v-20h-353v-297h219v-20h-219v-343h368v-20h-390z" />
    <glyph glyph-name="F" unicode="F" horiz-adv-x="505" 
d="M122 680v-309h213v-21h-213v-350h-22v700h364v-20h-342z" />
    <glyph glyph-name="G" unicode="G" horiz-adv-x="664" 
d="M596 277q0 -141 -64.5 -214.5t-175.5 -73.5q-62 0 -114 25.5t-89.5 73t-58 114t-20.5 148.5t21 148.5t58.5 113.5t89 73t113.5 26q71 0 118 -23.5t83 -62.5l-15 -15q-34 36 -77 58.5t-109 22.5q-57 0 -105 -24t-82.5 -68.5t-53.5 -107.5t-19 -141t19.5 -141t54 -107.5
t82 -68.5t104.5 -24q104 0 161 67.5t57 198.5v17h-173v20h195v-35v0z" />
    <glyph glyph-name="H" unicode="H" horiz-adv-x="664" 
d="M542 0v355h-420v-355h-22v700h22v-325h420v325h22v-700h-22z" />
    <glyph glyph-name="I" unicode="I" horiz-adv-x="231" 
d="M105 0v700h22v-700h-22z" />
    <glyph glyph-name="J" unicode="J" horiz-adv-x="547" 
d="M452 223q0 -124 -54 -179t-151 -55q-146 0 -202 132l19 9q27 -60 71 -90.5t112 -30.5q43 0 77.5 11.5t57.5 37t35.5 66.5t12.5 100v476h22v-477v0z" />
    <glyph glyph-name="K" unicode="K" horiz-adv-x="597" 
d="M525 0l-244 393l-159 -204v-189h-22v700h22v-480l374 480h26l-226 -289l254 -411h-25z" />
    <glyph glyph-name="L" unicode="L" horiz-adv-x="511" 
d="M100 0v700h22v-680h345v-20h-367z" />
    <glyph glyph-name="M" unicode="M" horiz-adv-x="793" 
d="M671 0v650l-274 -658h-2l-273 658v-650h-22v700h24l273 -658l272 658h24v-700h-22z" />
    <glyph glyph-name="N" unicode="N" horiz-adv-x="660" 
d="M535 0l-413 667v-667h-22v700h26l412 -665v665h22v-700h-25z" />
    <glyph glyph-name="O" unicode="O" horiz-adv-x="722" 
d="M648 350q0 -85 -21.5 -152t-60 -113.5t-91 -71t-114.5 -24.5t-115 24.5t-91 71t-59.5 113.5t-21.5 152q0 84 21.5 151t59.5 113.5t91 71.5t115 25t114.5 -24.5t91 -71t60 -113.5t21.5 -152zM626 350q0 80 -20 143.5t-55.5 107.5t-84 67t-105.5 23t-105.5 -23t-84 -67
t-55.5 -107.5t-20 -143.5t20 -143.5t56 -107.5t84.5 -67t105.5 -23t105.5 23t83.5 67t55 107.5t20 143.5z" />
    <glyph glyph-name="P" unicode="P" horiz-adv-x="576" 
d="M528 506q0 -102 -62 -152t-177 -50h-167v-304h-22v700h203q51 0 92.5 -10.5t71 -33.5t45.5 -60t16 -90zM505 505q0 48 -14 81t-40 54t-63.5 30.5t-85.5 9.5h-180v-356h167q107 0 161.5 44.5t54.5 136.5z" />
    <glyph glyph-name="Q" unicode="Q" horiz-adv-x="722" 
d="M648 350q0 -111 -36 -190.5t-99 -123.5l38 -59l-17 -11l-38 59q-29 -17 -63 -26.5t-72 -9.5q-62 0 -115 24.5t-91 71t-59.5 113.5t-21.5 152q0 84 21.5 151t60 113.5t91 71.5t114.5 25t114.5 -24.5t91 -71t60 -113.5t21.5 -152zM626 350q0 80 -20 143.5t-55.5 107.5
t-84 67t-105.5 23t-105.5 -23t-84 -67t-55.5 -107t-20 -144q0 -80 20 -143.5t56 -107.5t84.5 -67t105.5 -23q34 0 65 8.5t58 24.5l-70 111l18 11l70 -111q57 42 90 116.5t33 180.5z" />
    <glyph glyph-name="R" unicode="R" horiz-adv-x="603" 
d="M524 0h-26l-169 323q-11 -2 -22.5 -2h-24.5h-160v-321h-22v700h200q51 0 93.5 -9.5t72.5 -31t47 -57t17 -87.5q0 -84 -43 -130.5t-134 -59.5zM508 514q0 47 -14.5 78.5t-42 51t-66 28t-86.5 8.5h-177v-339h164q112 0 167 40.5t55 132.5z" />
    <glyph glyph-name="S" unicode="S" horiz-adv-x="565" 
d="M486 170q0 -45 -16 -78.5t-44 -56.5t-66 -34.5t-82 -11.5q-69 0 -121 20.5t-95 54.5l12 16q45 -35 92.5 -53.5t112.5 -18.5q38 0 72 9.5t59 29.5t39.5 50.5t14.5 71.5q0 33 -10 58.5t-32.5 46.5t-60.5 40t-93 40q-57 21 -94 40.5t-59 41t-31 47.5t-9 60t12.5 64.5
t37.5 53.5t63 36.5t88 13.5q63 0 111.5 -17.5t87.5 -43.5l-12 -17q-38 26 -82.5 42.5t-105.5 16.5q-47 0 -80.5 -12.5t-55 -32.5t-32 -47t-10.5 -55q0 -30 8 -53.5t28.5 -43t56 -37.5t90.5 -39q57 -21 96.5 -41.5t63.5 -44t35 -51.5t11 -65z" />
    <glyph glyph-name="T" unicode="T" horiz-adv-x="564" 
d="M291 680v-680h-22v680h-225v20h472v-20h-225z" />
    <glyph glyph-name="U" unicode="U" horiz-adv-x="659" 
d="M565 258q0 -138 -60 -203.5t-175 -65.5q-116 0 -175.5 65.5t-59.5 203.5v442h22v-442q0 -128 53.5 -188.5t159.5 -60.5t159.5 60.5t53.5 188.5v442h22v-442v0z" />
    <glyph glyph-name="V" unicode="V" horiz-adv-x="651" 
d="M338 -4h-24l-245 704h23l234 -677l234 677h22z" />
    <glyph glyph-name="W" unicode="W" horiz-adv-x="889" 
d="M658 -4h-24l-190 673l-189 -673h-24l-157 704h22l148 -672l189 673h24l189 -673l148 672h22z" />
    <glyph glyph-name="X" unicode="X" horiz-adv-x="599" 
d="M493 700h24l-206 -333l226 -367h-24l-214 347l-214 -347h-24l226 366l-205 334h24l193 -314z" />
    <glyph glyph-name="Y" unicode="Y" horiz-adv-x="619" 
d="M320 294v-294h-22v294l-237 406h25l224 -383l223 383h25z" />
    <glyph glyph-name="Z" unicode="Z" horiz-adv-x="589" 
d="M61 0v20l429 660h-408v20h433v-20l-429 -660h429v-20h-454z" />
    <glyph glyph-name="bracketleft" unicode="[" horiz-adv-x="320" 
d="M103 -110v810h150v-18h-129v-774h129v-18h-150z" />
    <glyph glyph-name="backslash" unicode="\" horiz-adv-x="406" 
d="M337 -90l-289 880h21l289 -880h-21z" />
    <glyph glyph-name="bracketright" unicode="]" horiz-adv-x="320" 
d="M67 -110v18h129v774h-129v18h150v-810h-150z" />
    <glyph glyph-name="asciicircum" unicode="^" horiz-adv-x="544" 
d="M456 382l-184 295l-184 -295h-24l200 318h17l200 -318h-25z" />
    <glyph glyph-name="underscore" unicode="_" horiz-adv-x="500" 
d="M0 -118v18h500v-18h-500z" />
    <glyph glyph-name="grave" unicode="`" horiz-adv-x="500" 
d="M283 595l-115 137h30l103 -137h-18z" />
    <glyph glyph-name="a" unicode="a" horiz-adv-x="527" 
d="M421 0v89q-32 -43 -79.5 -71.5t-107.5 -28.5q-33 0 -65.5 8t-57.5 26t-40.5 48t-15.5 75q0 43 15.5 75t42 53.5t62 32t75.5 10.5q54 0 97 -13.5t74 -30.5v87q0 44 -9 74t-28 48t-48 26t-68 8q-48 0 -84.5 -12t-71.5 -29l-8 19q35 17 74.5 29.5t90.5 12.5q43 0 75.5 -9
t54.5 -29t33 -53.5t11 -81.5v-363h-22zM421 253q-33 19 -75.5 32t-96.5 13q-36 0 -67.5 -9.5t-55 -28t-36.5 -47t-13 -66.5q0 -39 13.5 -66t36 -43t51 -23t59.5 -7q27 0 53.5 8t50.5 22t44.5 34.5t35.5 45.5v135z" />
    <glyph glyph-name="b" unicode="b" horiz-adv-x="549" 
d="M110 729v-295q32 44 77.5 73t104.5 29q44 0 80.5 -15.5t62.5 -48.5t40.5 -84t14.5 -123t-14.5 -124t-41 -86t-63.5 -50t-81 -16q-57 0 -102.5 28t-77.5 72v-89h-22v717zM110 120q30 -48 77 -80t101 -32q85 0 132.5 61.5t47.5 195.5q0 66 -12.5 113.5t-36 78t-57 45.5
t-74.5 15q-54 0 -100 -31t-78 -80v-286z" />
    <glyph glyph-name="c" unicode="c" horiz-adv-x="489" 
d="M429 48q-29 -27 -68.5 -43t-89.5 -16q-41 0 -79 16.5t-67.5 50t-47.5 85t-18 121.5q0 69 18.5 120.5t48.5 85.5t68.5 51t78.5 17q56 0 91 -16t63 -39l-12 -16q-28 23 -60 37.5t-83 14.5q-37 0 -71.5 -16t-61 -48t-42.5 -79t-16 -110q0 -64 15.5 -112t42 -80t61 -48
t72.5 -16q45 0 81.5 14.5t63.5 39.5l12 -14v0z" />
    <glyph glyph-name="d" unicode="d" horiz-adv-x="549" 
d="M439 0v91q-32 -44 -77.5 -73t-104.5 -29q-44 0 -80.5 15.5t-62.5 48.5t-40.5 84t-14.5 123t14.5 124t41 86t63.5 50t81 16q57 0 102.5 -28t77.5 -72v281l22 12v-729h-22zM439 405q-30 48 -77 80t-101 32q-84 0 -132 -62t-48 -195q0 -131 48.5 -191.5t131.5 -60.5
q54 0 100 31t78 80v286z" />
    <glyph glyph-name="e" unicode="e" horiz-adv-x="537" 
d="M472 270q0 -7 -1 -11h-391q1 -60 15.5 -107t39.5 -79t59 -48.5t73 -16.5q55 0 92.5 12t73.5 33l9 -16q-38 -23 -78.5 -35.5t-98.5 -12.5q-41 0 -78 17t-65.5 51.5t-45.5 85.5t-17 120q0 65 16.5 116t44.5 86t66 53t81 18q45 0 82.5 -17.5t64.5 -51.5t42.5 -83.5
t15.5 -113.5zM451 277q-1 58 -15 103t-38.5 75.5t-57.5 46t-73 15.5q-38 0 -71.5 -15.5t-58.5 -46t-40.5 -75.5t-16.5 -103h371z" />
    <glyph glyph-name="f" unicode="f" horiz-adv-x="332" 
d="M298 691q-8 4 -25.5 8t-38.5 4q-34 0 -58 -19.5t-24 -75.5v-83h134v-19h-134v-506h-22v506h-82v19h82v81q0 33 8 56t22 36.5t32.5 19.5t39.5 6q25 0 40.5 -3.5t25.5 -7.5v-22v0z" />
    <glyph glyph-name="g" unicode="g" horiz-adv-x="549" 
d="M461 42q0 -62 -14.5 -106.5t-46.5 -73t-82.5 -42t-122.5 -14.5l-9 21q70 1 118 12.5t78 37t43.5 65.5t13.5 99v50q-32 -44 -77.5 -73t-104.5 -29q-44 0 -80.5 15.5t-62.5 48.5t-40.5 84t-14.5 123t14.5 124t41 86t63.5 50t81 16q57 0 102.5 -28t77.5 -72v89h22v-483z
M439 405q-30 48 -77 80t-101 32q-84 0 -132 -62t-48 -195q0 -131 48.5 -191.5t131.5 -60.5q54 0 100 31t78 80v286z" />
    <glyph glyph-name="h" unicode="h" horiz-adv-x="564" 
d="M458 0v320q0 104 -46 150.5t-124 46.5q-30 0 -62 -9.5t-57.5 -32t-42 -60t-16.5 -94.5v-321h-22v717l22 12v-318q15 63 65 94t117 31q42 0 76.5 -12t59.5 -37.5t38.5 -65.5t13.5 -97v-324h-22z" />
    <glyph glyph-name="i" unicode="i" horiz-adv-x="208" 
d="M124 687q0 -8 -5.5 -13.5t-12.5 -5.5q-9 0 -14.5 5.5t-5.5 13.5q0 19 20 19q7 0 12.5 -5.5t5.5 -13.5zM93 0v525h22v-525h-22z" />
    <glyph glyph-name="j" unicode="j" horiz-adv-x="208" 
d="M124 687q0 -8 -5.5 -13.5t-12.5 -5.5q-9 0 -14.5 5.5t-5.5 13.5q0 19 20 19q7 0 12.5 -5.5t5.5 -13.5zM115 -12q0 -41 -5 -71t-17 -52t-33 -36.5t-53 -23.5l-10 18q28 8 47 20.5t29.5 32t15 47t4.5 65.5v537h22v-537z" />
    <glyph glyph-name="k" unicode="k" horiz-adv-x="486" 
d="M419 0l-188 302l-121 -159v-143h-22v717l22 12v-556l268 352h24l-158 -206l198 -319h-23z" />
    <glyph glyph-name="l" unicode="l" horiz-adv-x="208" 
d="M93 0v717l22 12v-729h-22z" />
    <glyph glyph-name="m" unicode="m" horiz-adv-x="899" 
d="M808 0v320q0 53 -12 90.5t-34 61t-52 34.5t-67 11q-29 0 -60 -9t-56 -31.5t-41 -60.5t-16 -95v-321h-22v321q0 53 -12 90.5t-34 61t-52.5 34t-66.5 10.5q-29 0 -60 -9t-56 -31.5t-41 -60.5t-16 -95v-321h-22v525h22v-114q7 31 24 54.5t40 39t52 23.5t60 8q75 0 120 -40
t55 -108q15 76 66.5 112t118.5 36q40 0 74 -12t58.5 -37.5t38 -65.5t13.5 -97v-324h-22z" />
    <glyph glyph-name="n" unicode="n" horiz-adv-x="564" 
d="M458 0v320q0 104 -46 150.5t-124 46.5q-30 0 -62 -9.5t-57.5 -32t-42 -60t-16.5 -94.5v-321h-22v525h22v-114q15 63 65 94t117 31q42 0 76.5 -12t59.5 -37.5t38.5 -65.5t13.5 -97v-324h-22z" />
    <glyph glyph-name="o" unicode="o" horiz-adv-x="568" 
d="M509 263q0 -66 -17.5 -117.5t-48 -86t-71.5 -52.5t-88 -18t-88 18t-71.5 52.5t-48 86t-17.5 117.5t17.5 116.5t48 85.5t71.5 53t88 18t88 -18t71.5 -53t48 -85.5t17.5 -116.5zM487 263q0 62 -15.5 109.5t-43 79.5t-64.5 48.5t-80 16.5t-80 -16.5t-64.5 -48.5t-43 -79.5
t-15.5 -109.5t15.5 -109.5t43 -80t64.5 -49t80 -16.5t80 16.5t64.5 49t43 80t15.5 109.5z" />
    <glyph glyph-name="p" unicode="p" horiz-adv-x="549" 
d="M110 525v-91q32 44 77.5 73t104.5 29q44 0 80.5 -15.5t62.5 -48.5t40.5 -84t14.5 -123t-14.5 -124t-41 -86t-63.5 -50t-81 -16q-57 0 -102.5 28t-77.5 72v-264l-22 -12v712h22zM110 120q30 -48 77 -80t101 -32q85 0 132.5 61.5t47.5 195.5q0 66 -12.5 113.5t-36 78
t-57 45.5t-74.5 15q-54 0 -100 -31t-78 -80v-286z" />
    <glyph glyph-name="q" unicode="q" horiz-adv-x="549" 
d="M439 -187v278q-32 -44 -77.5 -73t-104.5 -29q-44 0 -80.5 15.5t-62.5 48.5t-40.5 84t-14.5 123t14.5 124t41 86t63.5 50t81 16q57 0 102.5 -28t77.5 -72v89h22v-700zM439 405q-30 48 -77 80t-101 32q-84 0 -132 -62t-48 -195q0 -131 48.5 -191.5t131.5 -60.5q54 0 100 31
t78 80v286z" />
    <glyph glyph-name="r" unicode="r" horiz-adv-x="387" 
d="M347 500q-15 6 -33 10.5t-49 4.5q-24 0 -51 -9.5t-50.5 -31.5t-38.5 -59.5t-15 -92.5v-322h-22v525h22v-115q6 31 22 54.5t37.5 39.5t47.5 24t52 8q30 0 51.5 -4.5t35.5 -11.5z" />
    <glyph glyph-name="s" unicode="s" horiz-adv-x="435" 
d="M373 123q0 -65 -44.5 -99.5t-118.5 -34.5q-51 0 -90 15.5t-71 40.5l11 16q31 -23 67 -38t83 -15q67 0 104.5 30t37.5 85q0 24 -6.5 42t-22 34t-42.5 31.5t-68 32.5q-42 17 -70 32.5t-45.5 32.5t-25 38t-7.5 50q0 25 9.5 47t28.5 38t45.5 25.5t61.5 9.5q55 0 92 -14
t61 -34l-12 -16q-24 20 -58.5 32.5t-83.5 12.5q-58 0 -90.5 -29.5t-32.5 -70.5q0 -24 6.5 -42t22 -33t42 -29t66.5 -31q43 -18 71.5 -34t46 -34t25 -39.5t7.5 -51.5z" />
    <glyph glyph-name="t" unicode="t" horiz-adv-x="330" 
d="M274 11q-37 -19 -90 -19q-40 0 -60 23t-20 67v425h-70v18h70v192l22 12v-204h144v-18h-144v-423q0 -35 16 -53.5t49 -18.5q25 0 45.5 5.5t39.5 14.5z" />
    <glyph glyph-name="u" unicode="u" horiz-adv-x="564" 
d="M106 525v-320q0 -104 46 -150.5t124 -46.5q30 0 62 9t57.5 31.5t42 60.5t16.5 95v321h22v-525h-22v114q-15 -63 -65 -94t-117 -31q-42 0 -76.5 12t-59.5 37.5t-38.5 65.5t-13.5 97v324h22z" />
    <glyph glyph-name="v" unicode="v" horiz-adv-x="499" 
d="M259 -2h-19l-194 527h23l181 -499l180 499h23z" />
    <glyph glyph-name="w" unicode="w" horiz-adv-x="713" 
d="M526 -2h-20l-150 495l-148 -495h-20l-139 527h22l127 -492l148 494h20l150 -494l126 492h22z" />
    <glyph glyph-name="x" unicode="x" horiz-adv-x="483" 
d="M384 525h22l-154 -248l172 -277h-23l-160 258l-160 -258h-22l171 276l-154 249h23l142 -231z" />
    <glyph glyph-name="y" unicode="y" horiz-adv-x="501" 
d="M46 525h22l182 -495l183 495h22l-263 -710h-22l69 187z" />
    <glyph glyph-name="z" unicode="z" horiz-adv-x="490" 
d="M60 0v16l336 491h-305v18h330v-16l-336 -491h336v-18h-361z" />
    <glyph glyph-name="braceleft" unicode="{" horiz-adv-x="361" 
d="M307 -109q-38 3 -67.5 14t-49 32.5t-29.5 55t-10 82.5v140q0 13 -3.5 25.5t-11.5 22.5t-20.5 16.5t-30.5 6.5h-33v20h33q18 0 30.5 6.5t20.5 16.5t11.5 22.5t3.5 25.5v141q0 49 10 82.5t29.5 55t49 32.5t67.5 14v-18q-33 -4 -58.5 -13.5t-42.5 -28.5t-25.5 -48.5
t-8.5 -73.5v-136q0 -33 -13.5 -56.5t-44.5 -31.5q31 -8 44.5 -32t13.5 -57v-134q0 -44 8.5 -73.5t25.5 -48.5t42.5 -28.5t58.5 -13.5v-18v0z" />
    <glyph glyph-name="bar" unicode="|" horiz-adv-x="281" 
d="M130 -185v985h21v-985h-21z" />
    <glyph glyph-name="braceright" unicode="}" horiz-adv-x="361" 
d="M277 287q-18 0 -30.5 -6.5t-20.5 -16.5t-11.5 -23t-3.5 -26v-140q0 -49 -10 -82.5t-29.5 -55t-49 -32.5t-67.5 -14v18q33 4 58.5 13.5t42.5 28.5t25.5 48.5t8.5 73.5v136q0 32 13.5 56t43.5 32q-30 8 -43.5 32t-13.5 56v135q0 44 -8.5 73.5t-25.5 48.5t-42.5 28.5
t-58.5 13.5v18q38 -3 67.5 -14t49 -32.5t29.5 -55t10 -82.5v-140q0 -26 15 -48.5t51 -22.5h32v-20h-32z" />
    <glyph glyph-name="asciitilde" unicode="~" horiz-adv-x="528" 
d="M461 407q-22 -44 -46.5 -64t-59.5 -20q-26 0 -49 11.5t-45 25.5t-43.5 25.5t-44.5 11.5q-28 0 -48 -16.5t-39 -54.5l-20 9q22 44 47 64t60 20q27 0 49.5 -11t47.5 -27q22 -14 42.5 -25t42.5 -11q27 0 47 16.5t39 54.5l20 -9v0z" />
    <glyph glyph-name="nonbreakingspace" unicode="&#xa0;" horiz-adv-x="122" 
 />
    <glyph glyph-name="exclamdown" unicode="&#xa1;" horiz-adv-x="229" 
d="M92 680q0 10 7 16.5t16 6.5q10 0 16.5 -6.5t6.5 -16.5t-6.5 -17t-16.5 -7q-9 0 -16 7t-7 17zM108 556h13l4 -227v-329h-21v329z" />
    <glyph glyph-name="cent" unicode="&#xa2;" horiz-adv-x="489" 
d="M281 -11h-21v94q-39 2 -75.5 19.5t-64 51.5t-44.5 84t-17 118q0 66 17 116.5t45 84.5t64.5 52t74.5 21v83h21v-83q52 -2 85.5 -17t60.5 -38l-12 -16q-28 23 -60 37.5t-83 14.5q-37 0 -71.5 -16t-61 -48t-42.5 -79t-16 -110q0 -64 15.5 -112t42 -80t61 -48t72.5 -16
q45 0 81.5 14.5t63.5 39.5l12 -14q-27 -26 -64 -41.5t-84 -17.5v-94z" />
    <glyph glyph-name="sterling" unicode="&#xa3;" horiz-adv-x="561" 
d="M367 336v-20h-167q6 -26 6 -56q0 -77 -26 -133t-74 -107h403v-20h-434v19q27 27 47 53t34 54.5t21 61.5t7 72q0 30 -6 56h-102v20h96q-6 20 -14 39t-16 37q-14 29 -24 60t-10 69q0 39 14 70.5t40 53.5t63 34t82 12q54 0 99.5 -16.5t84.5 -48.5l-13 -16q-37 29 -79 45
t-93 16q-85 0 -130.5 -41.5t-45.5 -107.5q0 -36 9.5 -65t22.5 -57q9 -20 18 -40.5t15 -43.5h172z" />
    <glyph glyph-name="yen" unicode="&#xa5;" horiz-adv-x="609" 
d="M315 294v-115h143v-20h-143v-159h-22v159h-144v20h144v115l-237 406h25l224 -383l223 383h25z" />
    <glyph glyph-name="brokenbar" unicode="&#xa6;" 
d="M549 241q-2 -2 -3.5 0t-0.5 4l98 94h-276v-311l94 98q2 1 4 -0.5t1 -3.5l-108 -137l-108 137q-2 2 0 3.5t4 0.5l94 -98v311h-277l99 -94q1 -2 -0.5 -4t-3.5 0l-138 108l138 108q2 1 3.5 -1t0.5 -4l-99 -93h277v313l-94 -98q-2 -1 -4 0.5t0 3.5l108 137l108 -137
q1 -2 -1 -3.5t-4 -0.5l-94 98v-313h276l-98 93q-1 2 0.5 4t3.5 1l137 -108z" />
    <glyph glyph-name="section" unicode="&#xa7;" horiz-adv-x="595" 
d="M224 459q-56 25 -76 53.5t-20 67.5q0 59 44.5 95t123.5 36q53 0 98 -15t81 -41l-11 -17q-36 26 -78.5 39.5t-92.5 13.5q-68 0 -105.5 -30t-37.5 -79q0 -24 8.5 -43t28.5 -34.5t54 -30t84 -30.5q60 -19 100 -37t64.5 -39t34.5 -46.5t10 -58.5t-12 -60.5t-34 -50
t-51.5 -38.5t-65.5 -26q56 -26 76 -54t20 -67q0 -59 -44.5 -95t-123.5 -36q-52 0 -97.5 15t-81.5 41l11 17q36 -26 79 -39.5t92 -13.5q68 0 105.5 30t37.5 79q0 24 -8.5 43t-29 35t-54 30.5t-83.5 30.5q-60 19 -100 37t-64.5 38.5t-34.5 46t-10 58.5t12 60.5t34 50t52 38.5
t65 26zM346 99q75 18 120.5 60.5t45.5 101.5q0 29 -9.5 52t-31.5 42t-58.5 35.5t-91.5 33.5q-42 13 -71 24q-38 -9 -68.5 -24t-52.5 -36t-34 -47t-12 -55t9 -51.5t30.5 -41t58.5 -35.5t93 -34q20 -6 38 -12.5t34 -12.5z" />
    <glyph glyph-name="dieresis" unicode="&#xa8;" horiz-adv-x="500" 
d="M347 635q-9 0 -15.5 6.5t-6.5 15.5t6.5 15.5t15.5 6.5t15.5 -6.5t6.5 -15.5t-6.5 -15.5t-15.5 -6.5zM154 635q-10 0 -16.5 6.5t-6.5 15.5t6.5 15.5t16.5 6.5q8 0 14.5 -6.5t6.5 -15.5t-6.5 -15.5t-14.5 -6.5z" />
    <glyph glyph-name="copyright" unicode="&#xa9;" horiz-adv-x="836" 
d="M779 350q0 -79 -27 -145.5t-75.5 -114.5t-114.5 -74.5t-144 -26.5t-144 26.5t-114.5 74.5t-75.5 114.5t-27 145.5t27 145.5t75.5 114.5t114.5 74.5t144 26.5t144 -26.5t114.5 -74.5t75.5 -114.5t27 -145.5zM760 350q0 75 -25.5 138t-71.5 108.5t-108.5 71t-136.5 25.5
t-136.5 -25.5t-108.5 -71t-71.5 -108.5t-25.5 -138t25.5 -138t71.5 -108.5t108.5 -71t136.5 -25.5t136.5 25.5t108.5 71t71.5 108.5t25.5 138zM536 187q-46 -51 -118 -51q-37 0 -68 15t-53 42.5t-34.5 67.5t-12.5 90q0 48 12.5 87.5t35 67.5t53 43.5t67.5 15.5
q38 0 65.5 -12t47.5 -34l-16 -14q-19 20 -41 30t-56 10q-32 0 -59 -13.5t-46.5 -39t-30.5 -61.5t-11 -80t11 -80.5t30.5 -62t46.5 -39.5t59 -14q61 0 103 47z" />
    <glyph glyph-name="ordfeminine" unicode="&#xaa;" horiz-adv-x="458" 
d="M357 282v70q-24 -35 -62.5 -57t-86.5 -22q-26 0 -52 6.5t-46 21t-32.5 38.5t-12.5 60t12.5 62t33.5 42.5t49.5 24.5t61.5 8q42 0 76.5 -10.5t58.5 -24.5v69q0 69 -29 96.5t-92 27.5q-37 0 -66.5 -9.5t-58.5 -24.5l-8 17q29 14 61 24t73 10q69 0 104 -31t35 -108v-290h-19
zM357 483q-26 15 -59.5 26t-76.5 11q-29 0 -53.5 -7t-43.5 -22t-29.5 -37.5t-10.5 -53.5t10.5 -52t28.5 -34t41 -18.5t47 -5.5q44 0 83.5 23.5t62.5 63.5v106z" />
    <glyph glyph-name="guillemotleft" unicode="&#xab;" horiz-adv-x="541" 
d="M457 0l-203 261v2l203 262h24l-203 -263l203 -262h-24zM244 0l-203 261v2l203 262h24l-203 -263l203 -262h-24z" />
    <glyph glyph-name="logicalnot" unicode="&#xac;" horiz-adv-x="600" 
d="M416 242q-2 -2 -4 0t-1 4l99 93h-445v20h445l-99 92q-1 2 1 4t4 1l140 -107z" />
    <glyph glyph-name="registered" unicode="&#xae;" horiz-adv-x="836" 
d="M779 350q0 -79 -27 -145.5t-75.5 -114.5t-114.5 -74.5t-144 -26.5t-144 26.5t-114.5 74.5t-75.5 114.5t-27 145.5t27 145.5t75.5 114.5t114.5 74.5t144 26.5t144 -26.5t114.5 -74.5t75.5 -114.5t27 -145.5zM760 350q0 75 -25.5 138t-71.5 108.5t-108.5 71t-136.5 25.5
t-136.5 -25.5t-108.5 -71t-71.5 -108.5t-25.5 -138t25.5 -138t71.5 -108.5t108.5 -71t136.5 -25.5t136.5 25.5t108.5 71t71.5 108.5t25.5 138zM562 452q0 -54 -26 -80.5t-74 -34.5l96 -188h-24l-96 186h-116v-186h-21v413h125q60 0 98 -24.5t38 -85.5zM542 452
q0 52 -31.5 71.5t-85.5 19.5h-103v-188h103q60 0 88.5 22.5t28.5 74.5z" />
    <glyph glyph-name="macron" unicode="&#xaf;" horiz-adv-x="500" 
d="M114 636v19h272v-19h-272z" />
    <glyph glyph-name="degree" unicode="&#xb0;" horiz-adv-x="446" 
d="M382 549q0 -35 -12 -65t-33 -52t-50.5 -34.5t-63.5 -12.5q-35 0 -64 12.5t-50 34.5t-33 52t-12 65q0 34 12 63.5t33 51.5t50 34.5t64 12.5q34 0 63.5 -12.5t50.5 -34.5t33 -51.5t12 -63.5zM363 549q0 30 -10.5 56.5t-29 46t-44 30.5t-56.5 11t-56.5 -11t-44 -30.5
t-29 -46t-10.5 -56.5q0 -32 10.5 -58.5t29 -46t44 -30.5t56.5 -11t56.5 11t44 30.5t29 46t10.5 58.5z" />
    <glyph glyph-name="plusminus" unicode="&#xb1;" 
d="M549 241q-2 -2 -3.5 0t-0.5 4l98 94h-276v-311l94 98q2 1 4 -0.5t1 -3.5l-108 -137l-108 137q-2 2 0 3.5t4 0.5l94 -98v311h-277l99 -94q1 -2 -0.5 -4t-3.5 0l-138 108l138 108q2 1 3.5 -1t0.5 -4l-99 -93h277v313l-94 -98q-2 -1 -4 0.5t0 3.5l108 137l108 -137
q1 -2 -1 -3.5t-4 -0.5l-94 98v-313h276l-98 93q-1 2 0.5 4t3.5 1l137 -108z" />
    <glyph glyph-name="twosuperior" unicode="&#xb2;" 
d="M549 241q-2 -2 -3.5 0t-0.5 4l98 94h-276v-311l94 98q2 1 4 -0.5t1 -3.5l-108 -137l-108 137q-2 2 0 3.5t4 0.5l94 -98v311h-277l99 -94q1 -2 -0.5 -4t-3.5 0l-138 108l138 108q2 1 3.5 -1t0.5 -4l-99 -93h277v313l-94 -98q-2 -1 -4 0.5t0 3.5l108 137l108 -137
q1 -2 -1 -3.5t-4 -0.5l-94 98v-313h276l-98 93q-1 2 0.5 4t3.5 1l137 -108z" />
    <glyph glyph-name="threesuperior" unicode="&#xb3;" 
d="M549 241q-2 -2 -3.5 0t-0.5 4l98 94h-276v-311l94 98q2 1 4 -0.5t1 -3.5l-108 -137l-108 137q-2 2 0 3.5t4 0.5l94 -98v311h-277l99 -94q1 -2 -0.5 -4t-3.5 0l-138 108l138 108q2 1 3.5 -1t0.5 -4l-99 -93h277v313l-94 -98q-2 -1 -4 0.5t0 3.5l108 137l108 -137
q1 -2 -1 -3.5t-4 -0.5l-94 98v-313h276l-98 93q-1 2 0.5 4t3.5 1l137 -108z" />
    <glyph glyph-name="acute" unicode="&#xb4;" horiz-adv-x="500" 
d="M217 595h-18l103 137h30z" />
    <glyph glyph-name="mu" unicode="&#xb5;" horiz-adv-x="725" 
d="M557 242q-2 -2 -4 0t-1 4l99 93h-577l99 -93q1 -2 -1 -4t-4 0l-140 107l140 107q2 1 4 -1t1 -4l-99 -92h577l-99 92q-1 2 1 4t4 1l139 -107z" />
    <glyph glyph-name="paragraph" unicode="&#xb6;" horiz-adv-x="634" 
d="M509 -185v865h-131v-865h-22v447h-66q-58 0 -103 16t-75.5 45t-46.5 70t-16 92q0 52 18 92.5t50 67.5t76.5 41t97.5 14h240v-885h-22zM356 680h-63q-103 0 -162.5 -48.5t-59.5 -145.5q0 -92 54 -148t167 -56h64v398z" />
    <glyph glyph-name="periodcentered" unicode="&#xb7;" horiz-adv-x="190" 
d="M117 382q0 -10 -7 -16.5t-16 -6.5q-10 0 -16.5 6.5t-6.5 16.5t6.5 17t16.5 7q9 0 16 -7t7 -17z" />
    <glyph glyph-name="cedilla" unicode="&#xb8;" horiz-adv-x="500" 
d="M347 -95q0 -35 -25.5 -53.5t-69.5 -18.5q-30 0 -54.5 8t-44.5 22l9 14q20 -15 42.5 -21.5t45.5 -6.5q38 0 58.5 14.5t20.5 40.5q0 20 -13.5 31t-33.5 11q-34 0 -55 -23l-15 6l31 71h19l-26 -55q10 7 21 11t31 4q22 0 40.5 -13t18.5 -42z" />
    <glyph glyph-name="onesuperior" unicode="&#xb9;" 
d="M549 241q-2 -2 -3.5 0t-0.5 4l98 94h-276v-311l94 98q2 1 4 -0.5t1 -3.5l-108 -137l-108 137q-2 2 0 3.5t4 0.5l94 -98v311h-277l99 -94q1 -2 -0.5 -4t-3.5 0l-138 108l138 108q2 1 3.5 -1t0.5 -4l-99 -93h277v313l-94 -98q-2 -1 -4 0.5t0 3.5l108 137l108 -137
q1 -2 -1 -3.5t-4 -0.5l-94 98v-313h276l-98 93q-1 2 0.5 4t3.5 1l137 -108z" />
    <glyph glyph-name="ordmasculine" unicode="&#xba;" horiz-adv-x="483" 
d="M422 493q0 -53 -14 -94t-38.5 -69t-57.5 -42.5t-71 -14.5t-70.5 14.5t-57 42.5t-38.5 68.5t-14 93.5t14 94t38.5 68.5t57.5 42t71 14.5q37 0 70 -14.5t57.5 -42t38.5 -68.5t14 -93zM403 492q0 49 -12.5 86.5t-34 63t-51 38.5t-63.5 13t-63.5 -13t-51.5 -38.5t-34.5 -63
t-12.5 -86.5t12.5 -86.5t34.5 -63t51.5 -38.5t63.5 -13t63.5 13t51 38.5t34 63t12.5 86.5z" />
    <glyph glyph-name="guillemotright" unicode="&#xbb;" horiz-adv-x="541" 
d="M298 0h-25l203 262l-203 263h25l202 -262v-2zM85 0h-25l203 262l-203 263h25l202 -262v-2z" />
    <glyph glyph-name="onequarter" unicode="&#xbc;" 
d="M549 241q-2 -2 -3.5 0t-0.5 4l98 94h-276v-311l94 98q2 1 4 -0.5t1 -3.5l-108 -137l-108 137q-2 2 0 3.5t4 0.5l94 -98v311h-277l99 -94q1 -2 -0.5 -4t-3.5 0l-138 108l138 108q2 1 3.5 -1t0.5 -4l-99 -93h277v313l-94 -98q-2 -1 -4 0.5t0 3.5l108 137l108 -137
q1 -2 -1 -3.5t-4 -0.5l-94 98v-313h276l-98 93q-1 2 0.5 4t3.5 1l137 -108z" />
    <glyph glyph-name="onehalf" unicode="&#xbd;" 
d="M549 241q-2 -2 -3.5 0t-0.5 4l98 94h-276v-311l94 98q2 1 4 -0.5t1 -3.5l-108 -137l-108 137q-2 2 0 3.5t4 0.5l94 -98v311h-277l99 -94q1 -2 -0.5 -4t-3.5 0l-138 108l138 108q2 1 3.5 -1t0.5 -4l-99 -93h277v313l-94 -98q-2 -1 -4 0.5t0 3.5l108 137l108 -137
q1 -2 -1 -3.5t-4 -0.5l-94 98v-313h276l-98 93q-1 2 0.5 4t3.5 1l137 -108z" />
    <glyph glyph-name="threequarters" unicode="&#xbe;" 
d="M549 241q-2 -2 -3.5 0t-0.5 4l98 94h-276v-311l94 98q2 1 4 -0.5t1 -3.5l-108 -137l-108 137q-2 2 0 3.5t4 0.5l94 -98v311h-277l99 -94q1 -2 -0.5 -4t-3.5 0l-138 108l138 108q2 1 3.5 -1t0.5 -4l-99 -93h277v313l-94 -98q-2 -1 -4 0.5t0 3.5l108 137l108 -137
q1 -2 -1 -3.5t-4 -0.5l-94 98v-313h276l-98 93q-1 2 0.5 4t3.5 1l137 -108z" />
    <glyph glyph-name="questiondown" unicode="&#xbf;" horiz-adv-x="554" 
d="M282 680q0 10 7 16.5t16 6.5q10 0 16.5 -6.5t6.5 -16.5t-6.5 -17t-16.5 -7q-9 0 -16 7t-7 17zM87 149q0 32 7 56t22 45t37.5 42t53.5 47q26 22 43 39.5t26.5 40t13.5 54.5t4 83h22q0 -51 -4 -84t-14.5 -57.5t-29.5 -45.5t-50 -47q-29 -25 -50 -44.5t-34 -38.5t-19 -40
t-6 -49q0 -32 12.5 -57.5t35 -44.5t54 -29t70.5 -10q65 0 113 20.5t88 51.5l11 -17q-38 -31 -89.5 -53t-123.5 -22q-43 0 -78.5 11t-61 32t-39.5 50.5t-14 66.5z" />
    <glyph glyph-name="Agrave" unicode="&#xc0;" horiz-adv-x="654" 
d="M562 0l-71 204h-328l-72 -204h-22l246 704h24l246 -704h-23zM327 676l-157 -452h314zM317 745l-115 137h30l103 -137h-18z" />
    <glyph glyph-name="Aacute" unicode="&#xc1;" horiz-adv-x="654" 
d="M562 0l-71 204h-328l-72 -204h-22l246 704h24l246 -704h-23zM327 676l-157 -452h314zM335 745h-18l103 137h30z" />
    <glyph glyph-name="Acircumflex" unicode="&#xc2;" horiz-adv-x="654" 
d="M562 0l-71 204h-328l-72 -204h-22l246 704h24l246 -704h-23zM327 676l-157 -452h314zM450 725l-123 122l-123 -122h-24l135 137h24l135 -137h-24z" />
    <glyph glyph-name="Atilde" unicode="&#xc3;" horiz-adv-x="654" 
d="M562 0l-71 204h-328l-72 -204h-22l246 704h24l246 -704h-23zM327 676l-157 -452h314zM481 832q-4 -43 -26 -64.5t-55 -21.5q-22 0 -39.5 10t-35.5 23q-22 16 -38.5 26.5t-36.5 10.5q-53 0 -63 -68h-18q4 43 26 64.5t55 21.5q22 0 40 -10t35 -23q22 -16 38.5 -26.5
t36.5 -10.5q53 0 63 68h18v0z" />
    <glyph glyph-name="Adieresis" unicode="&#xc4;" horiz-adv-x="654" 
d="M562 0l-71 204h-328l-72 -204h-22l246 704h24l246 -704h-23zM327 676l-157 -452h314zM424 781q-9 0 -15.5 6.5t-6.5 15.5t6.5 15.5t15.5 6.5t15.5 -6.5t6.5 -15.5t-6.5 -15.5t-15.5 -6.5zM231 781q-10 0 -16.5 6.5t-6.5 15.5t6.5 15.5t16.5 6.5q8 0 14.5 -6.5t6.5 -15.5
t-6.5 -15.5t-14.5 -6.5z" />
    <glyph glyph-name="Aring" unicode="&#xc5;" horiz-adv-x="654" 
d="M585 0h-23l-71 204h-328l-72 -204h-22l240 686q-29 6 -47 28t-18 52q0 35 24 59t59 24t59 -24t24 -59q0 -30 -18 -52t-47 -28zM327 834q-29 0 -48 -19.5t-19 -48.5t19 -48t48 -19t48 19t19 48t-19 48.5t-48 19.5zM327 676l-157 -452h314z" />
    <glyph glyph-name="AE" unicode="&#xc6;" horiz-adv-x="939" 
d="M507 0v204h-316l-138 -204h-25l477 700h377v-20h-354v-297h220v-20h-220v-343h369v-20h-390zM507 669l-302 -445h302v445z" />
    <glyph glyph-name="Ccedilla" unicode="&#xc7;" horiz-adv-x="613" 
d="M324 -55q10 7 21 11t31 4q22 0 40.5 -13t18.5 -42q0 -35 -25.5 -53.5t-69.5 -18.5q-30 0 -54.5 8t-44.5 22l9 14q20 -15 42.5 -21.5t45.5 -6.5q38 0 58.5 14.5t20.5 40.5q0 20 -13.5 31t-33.5 11q-34 0 -55 -23l-15 6l27 61q-56 6 -102.5 34t-80 74.5t-52 110.5
t-18.5 141q0 82 21 148.5t58.5 114t89 73t113.5 25.5q63 0 106.5 -19t75.5 -52l-14 -14q-32 32 -71.5 48.5t-96.5 16.5t-104.5 -24t-82 -68.5t-54 -107.5t-19.5 -141t19.5 -141t54 -107.5t82.5 -68.5t104 -24q51 0 97.5 18.5t81.5 54.5l14 -14q-39 -40 -88 -59.5t-105 -19.5
h-11z" />
    <glyph glyph-name="Egrave" unicode="&#xc8;" horiz-adv-x="532" 
d="M100 0v700h375v-20h-353v-297h219v-20h-219v-343h368v-20h-390zM290 745l-115 137h30l103 -137h-18z" />
    <glyph glyph-name="Eacute" unicode="&#xc9;" horiz-adv-x="532" 
d="M100 0v700h375v-20h-353v-297h219v-20h-219v-343h368v-20h-390zM275 745h-18l103 137h30z" />
    <glyph glyph-name="Ecircumflex" unicode="&#xca;" horiz-adv-x="532" 
d="M100 0v700h375v-20h-353v-297h219v-20h-219v-343h368v-20h-390zM409 745l-123 122l-123 -122h-24l135 137h24l135 -137h-24z" />
    <glyph glyph-name="Edieresis" unicode="&#xcb;" horiz-adv-x="532" 
d="M100 0v700h375v-20h-353v-297h219v-20h-219v-343h368v-20h-390zM385 785q-9 0 -15.5 6.5t-6.5 15.5t6.5 15.5t15.5 6.5t15.5 -6.5t6.5 -15.5t-6.5 -15.5t-15.5 -6.5zM192 785q-10 0 -16.5 6.5t-6.5 15.5t6.5 15.5t16.5 6.5q8 0 14.5 -6.5t6.5 -15.5t-6.5 -15.5
t-14.5 -6.5z" />
    <glyph glyph-name="Igrave" unicode="&#xcc;" horiz-adv-x="231" 
d="M105 0v700h22v-700h-22zM108 745l-115 137h30l103 -137h-18z" />
    <glyph glyph-name="Iacute" unicode="&#xcd;" horiz-adv-x="231" 
d="M105 0v700h22v-700h-22zM126 745h-18l103 137h30z" />
    <glyph glyph-name="Icircumflex" unicode="&#xce;" horiz-adv-x="231" 
d="M105 0v700h22v-700h-22zM239 729l-123 122l-123 -122h-24l135 137h24l135 -137h-24z" />
    <glyph glyph-name="Idieresis" unicode="&#xcf;" horiz-adv-x="231" 
d="M105 0v700h22v-700h-22zM213 782q-9 0 -15.5 6.5t-6.5 15.5t6.5 15.5t15.5 6.5t15.5 -6.5t6.5 -15.5t-6.5 -15.5t-15.5 -6.5zM20 782q-10 0 -16.5 6.5t-6.5 15.5t6.5 15.5t16.5 6.5q8 0 14.5 -6.5t6.5 -15.5t-6.5 -15.5t-14.5 -6.5z" />
    <glyph glyph-name="Eth" unicode="&#xd0;" horiz-adv-x="676" 
d="M598 351q0 -93 -21.5 -159t-62 -109t-98.5 -63t-131 -20h-175v354h-70v21h70v325h179q73 0 130 -20.5t97 -63.5t61 -108.5t21 -156.5zM576 350q0 169 -74 249.5t-215 80.5h-156v-305h159v-21h-159v-334h157q138 0 213 78t75 252z" />
    <glyph glyph-name="Ntilde" unicode="&#xd1;" horiz-adv-x="660" 
d="M535 0l-413 667v-667h-22v700h26l412 -665v665h22v-700h-25zM490 829q-4 -43 -26 -64.5t-55 -21.5q-22 0 -39.5 10t-35.5 23q-22 16 -38.5 26.5t-36.5 10.5q-53 0 -63 -68h-18q4 43 26 64.5t55 21.5q22 0 40 -10t35 -23q22 -16 38.5 -26.5t36.5 -10.5q53 0 63 68h18v0z
" />
    <glyph glyph-name="Ograve" unicode="&#xd2;" horiz-adv-x="722" 
d="M648 350q0 -85 -21.5 -152t-60 -113.5t-91 -71t-114.5 -24.5t-115 24.5t-91 71t-59.5 113.5t-21.5 152q0 84 21.5 151t59.5 113.5t91 71.5t115 25t114.5 -24.5t91 -71t60 -113.5t21.5 -152zM626 350q0 80 -20 143.5t-55.5 107.5t-84 67t-105.5 23t-105.5 -23t-84 -67
t-55.5 -107.5t-20 -143.5t20 -143.5t56 -107.5t84.5 -67t105.5 -23t105.5 23t83.5 67t55 107.5t20 143.5zM356 745l-115 137h30l103 -137h-18z" />
    <glyph glyph-name="Oacute" unicode="&#xd3;" horiz-adv-x="722" 
d="M648 350q0 -85 -21.5 -152t-60 -113.5t-91 -71t-114.5 -24.5t-115 24.5t-91 71t-59.5 113.5t-21.5 152q0 84 21.5 151t59.5 113.5t91 71.5t115 25t114.5 -24.5t91 -71t60 -113.5t21.5 -152zM626 350q0 80 -20 143.5t-55.5 107.5t-84 67t-105.5 23t-105.5 -23t-84 -67
t-55.5 -107.5t-20 -143.5t20 -143.5t56 -107.5t84.5 -67t105.5 -23t105.5 23t83.5 67t55 107.5t20 143.5zM357 745h-18l103 137h30z" />
    <glyph glyph-name="Ocircumflex" unicode="&#xd4;" horiz-adv-x="722" 
d="M648 350q0 -85 -21.5 -152t-60 -113.5t-91 -71t-114.5 -24.5t-115 24.5t-91 71t-59.5 113.5t-21.5 152q0 84 21.5 151t59.5 113.5t91 71.5t115 25t114.5 -24.5t91 -71t60 -113.5t21.5 -152zM626 350q0 80 -20 143.5t-55.5 107.5t-84 67t-105.5 23t-105.5 -23t-84 -67
t-55.5 -107.5t-20 -143.5t20 -143.5t56 -107.5t84.5 -67t105.5 -23t105.5 23t83.5 67t55 107.5t20 143.5zM483 744l-123 122l-123 -122h-24l135 137h24l135 -137h-24z" />
    <glyph glyph-name="Otilde" unicode="&#xd5;" horiz-adv-x="722" 
d="M648 350q0 -85 -21.5 -152t-60 -113.5t-91 -71t-114.5 -24.5t-115 24.5t-91 71t-59.5 113.5t-21.5 152q0 84 21.5 151t59.5 113.5t91 71.5t115 25t114.5 -24.5t91 -71t60 -113.5t21.5 -152zM626 350q0 80 -20 143.5t-55.5 107.5t-84 67t-105.5 23t-105.5 -23t-84 -67
t-55.5 -107.5t-20 -143.5t20 -143.5t56 -107.5t84.5 -67t105.5 -23t105.5 23t83.5 67t55 107.5t20 143.5zM513 832q-4 -43 -26 -64.5t-55 -21.5q-22 0 -39.5 10t-35.5 23q-22 16 -38.5 26.5t-36.5 10.5q-53 0 -63 -68h-18q4 43 26 64.5t55 21.5q22 0 40 -10t35 -23
q22 -16 38.5 -26.5t36.5 -10.5q53 0 63 68h18v0z" />
    <glyph glyph-name="Odieresis" unicode="&#xd6;" horiz-adv-x="722" 
d="M648 350q0 -85 -21.5 -152t-60 -113.5t-91 -71t-114.5 -24.5t-115 24.5t-91 71t-59.5 113.5t-21.5 152q0 84 21.5 151t59.5 113.5t91 71.5t115 25t114.5 -24.5t91 -71t60 -113.5t21.5 -152zM626 350q0 80 -20 143.5t-55.5 107.5t-84 67t-105.5 23t-105.5 -23t-84 -67
t-55.5 -107.5t-20 -143.5t20 -143.5t56 -107.5t84.5 -67t105.5 -23t105.5 23t83.5 67t55 107.5t20 143.5zM456 785q-9 0 -15.5 6.5t-6.5 15.5t6.5 15.5t15.5 6.5t15.5 -6.5t6.5 -15.5t-6.5 -15.5t-15.5 -6.5zM263 785q-10 0 -16.5 6.5t-6.5 15.5t6.5 15.5t16.5 6.5
q8 0 14.5 -6.5t6.5 -15.5t-6.5 -15.5t-14.5 -6.5z" />
    <glyph glyph-name="multiply" unicode="&#xd7;" 
d="M549 241q-2 -2 -3.5 0t-0.5 4l98 94h-276v-311l94 98q2 1 4 -0.5t1 -3.5l-108 -137l-108 137q-2 2 0 3.5t4 0.5l94 -98v311h-277l99 -94q1 -2 -0.5 -4t-3.5 0l-138 108l138 108q2 1 3.5 -1t0.5 -4l-99 -93h277v313l-94 -98q-2 -1 -4 0.5t0 3.5l108 137l108 -137
q1 -2 -1 -3.5t-4 -0.5l-94 98v-313h276l-98 93q-1 2 0.5 4t3.5 1l137 -108z" />
    <glyph glyph-name="Oslash" unicode="&#xd8;" horiz-adv-x="722" 
d="M198 43q-57 45 -90.5 122.5t-33.5 184.5q0 84 21.5 151t59.5 113.5t91 71.5t115 25q83 0 145 -42l40 81h20l-45 -91q58 -44 92.5 -122.5t34.5 -186.5q0 -85 -21.5 -152t-60 -113.5t-91 -71t-114.5 -24.5q-82 0 -148 43l-40 -82h-20zM497 650q-61 41 -136 41
q-57 0 -105.5 -23t-84 -67t-55.5 -107.5t-20 -143.5q0 -100 30 -172.5t82 -114.5zM223 52q61 -43 139 -43q57 0 105.5 23t83.5 67t55 107.5t20 143.5q0 100 -30.5 173.5t-83.5 115.5z" />
    <glyph glyph-name="Ugrave" unicode="&#xd9;" horiz-adv-x="659" 
d="M565 258q0 -138 -60 -203.5t-175 -65.5q-116 0 -175.5 65.5t-59.5 203.5v442h22v-442q0 -128 53.5 -188.5t159.5 -60.5t159.5 60.5t53.5 188.5v442h22v-442v0zM326 734l-115 137h30l103 -137h-18z" />
    <glyph glyph-name="Uacute" unicode="&#xda;" horiz-adv-x="659" 
d="M565 258q0 -138 -60 -203.5t-175 -65.5q-116 0 -175.5 65.5t-59.5 203.5v442h22v-442q0 -128 53.5 -188.5t159.5 -60.5t159.5 60.5t53.5 188.5v442h22v-442v0zM324 734h-18l103 137h30z" />
    <glyph glyph-name="Ucircumflex" unicode="&#xdb;" horiz-adv-x="659" 
d="M565 258q0 -138 -60 -203.5t-175 -65.5q-116 0 -175.5 65.5t-59.5 203.5v442h22v-442q0 -128 53.5 -188.5t159.5 -60.5t159.5 60.5t53.5 188.5v442h22v-442v0zM452 745l-123 122l-123 -122h-24l135 137h24l135 -137h-24z" />
    <glyph glyph-name="Udieresis" unicode="&#xdc;" horiz-adv-x="659" 
d="M565 258q0 -138 -60 -203.5t-175 -65.5q-116 0 -175.5 65.5t-59.5 203.5v442h22v-442q0 -128 53.5 -188.5t159.5 -60.5t159.5 60.5t53.5 188.5v442h22v-442v0zM426 777q-9 0 -15.5 6.5t-6.5 15.5t6.5 15.5t15.5 6.5t15.5 -6.5t6.5 -15.5t-6.5 -15.5t-15.5 -6.5zM233 777
q-10 0 -16.5 6.5t-6.5 15.5t6.5 15.5t16.5 6.5q8 0 14.5 -6.5t6.5 -15.5t-6.5 -15.5t-14.5 -6.5z" />
    <glyph glyph-name="Yacute" unicode="&#xdd;" horiz-adv-x="619" 
d="M320 294v-294h-22v294l-237 406h25l224 -383l223 383h25zM314 733h-18l103 137h30z" />
    <glyph glyph-name="Thorn" unicode="&#xde;" horiz-adv-x="576" 
d="M528 368q0 -102 -62 -152t-177 -50h-167v-166h-22v700h22v-138h181q51 0 92.5 -10.5t71 -33.5t45.5 -60t16 -90zM505 367q0 48 -14 81t-40 54t-63.5 30.5t-85.5 9.5h-180v-356h167q107 0 161.5 44.5t54.5 136.5z" />
    <glyph glyph-name="germandbls" unicode="&#xdf;" horiz-adv-x="567" 
d="M509 219q0 -59 -19 -100.5t-53 -68t-80.5 -38.5t-101.5 -12h-11v19h12q52 0 94.5 11.5t73 35.5t47 61.5t16.5 90.5q0 88 -60 131t-168 43h-15v20h16q89 0 129.5 40.5t40.5 109.5q0 29 -10.5 54.5t-30.5 44t-51 29.5t-71 11q-73 0 -115 -46t-42 -133v-697l-22 -12v706
q0 97 48 149.5t132 52.5q45 0 79 -12.5t57.5 -34t35.5 -50.5t12 -62q0 -38 -10.5 -65.5t-28.5 -47t-42.5 -31t-52.5 -15.5q42 -3 77 -15.5t60.5 -36t39.5 -56.5t14 -76z" />
    <glyph glyph-name="agrave" unicode="&#xe0;" horiz-adv-x="527" 
d="M421 0v89q-32 -43 -79.5 -71.5t-107.5 -28.5q-33 0 -65.5 8t-57.5 26t-40.5 48t-15.5 75q0 43 15.5 75t42 53.5t62 32t75.5 10.5q54 0 97 -13.5t74 -30.5v87q0 44 -9 74t-28 48t-48 26t-68 8q-48 0 -84.5 -12t-71.5 -29l-8 19q35 17 74.5 29.5t90.5 12.5q43 0 75.5 -9
t54.5 -29t33 -53.5t11 -81.5v-363h-22zM421 253q-33 19 -75.5 32t-96.5 13q-36 0 -67.5 -9.5t-55 -28t-36.5 -47t-13 -66.5q0 -39 13.5 -66t36 -43t51 -23t59.5 -7q27 0 53.5 8t50.5 22t44.5 34.5t35.5 45.5v135zM262 595l-115 137h30l103 -137h-18z" />
    <glyph glyph-name="aacute" unicode="&#xe1;" horiz-adv-x="527" 
d="M421 0v89q-32 -43 -79.5 -71.5t-107.5 -28.5q-33 0 -65.5 8t-57.5 26t-40.5 48t-15.5 75q0 43 15.5 75t42 53.5t62 32t75.5 10.5q54 0 97 -13.5t74 -30.5v87q0 44 -9 74t-28 48t-48 26t-68 8q-48 0 -84.5 -12t-71.5 -29l-8 19q35 17 74.5 29.5t90.5 12.5q43 0 75.5 -9
t54.5 -29t33 -53.5t11 -81.5v-363h-22zM421 253q-33 19 -75.5 32t-96.5 13q-36 0 -67.5 -9.5t-55 -28t-36.5 -47t-13 -66.5q0 -39 13.5 -66t36 -43t51 -23t59.5 -7q27 0 53.5 8t50.5 22t44.5 34.5t35.5 45.5v135zM272 595h-18l103 137h30z" />
    <glyph glyph-name="acircumflex" unicode="&#xe2;" horiz-adv-x="527" 
d="M421 0v89q-32 -43 -79.5 -71.5t-107.5 -28.5q-33 0 -65.5 8t-57.5 26t-40.5 48t-15.5 75q0 43 15.5 75t42 53.5t62 32t75.5 10.5q54 0 97 -13.5t74 -30.5v87q0 44 -9 74t-28 48t-48 26t-68 8q-48 0 -84.5 -12t-71.5 -29l-8 19q35 17 74.5 29.5t90.5 12.5q43 0 75.5 -9
t54.5 -29t33 -53.5t11 -81.5v-363h-22zM421 253q-33 19 -75.5 32t-96.5 13q-36 0 -67.5 -9.5t-55 -28t-36.5 -47t-13 -66.5q0 -39 13.5 -66t36 -43t51 -23t59.5 -7q27 0 53.5 8t50.5 22t44.5 34.5t35.5 45.5v135zM386 595l-123 122l-123 -122h-24l135 137h24l135 -137h-24z
" />
    <glyph glyph-name="atilde" unicode="&#xe3;" horiz-adv-x="527" 
d="M421 0v89q-32 -43 -79.5 -71.5t-107.5 -28.5q-33 0 -65.5 8t-57.5 26t-40.5 48t-15.5 75q0 43 15.5 75t42 53.5t62 32t75.5 10.5q54 0 97 -13.5t74 -30.5v87q0 44 -9 74t-28 48t-48 26t-68 8q-48 0 -84.5 -12t-71.5 -29l-8 19q35 17 74.5 29.5t90.5 12.5q43 0 75.5 -9
t54.5 -29t33 -53.5t11 -81.5v-363h-22zM421 253q-33 19 -75.5 32t-96.5 13q-36 0 -67.5 -9.5t-55 -28t-36.5 -47t-13 -66.5q0 -39 13.5 -66t36 -43t51 -23t59.5 -7q27 0 53.5 8t50.5 22t44.5 34.5t35.5 45.5v135zM422 682q-4 -43 -26 -64.5t-55 -21.5q-22 0 -39.5 10
t-35.5 23q-22 16 -38.5 26.5t-36.5 10.5q-53 0 -63 -68h-18q4 43 26 64.5t55 21.5q22 0 40 -10t35 -23q22 -16 38.5 -26.5t36.5 -10.5q53 0 63 68h18v0z" />
    <glyph glyph-name="adieresis" unicode="&#xe4;" horiz-adv-x="527" 
d="M421 0v89q-32 -43 -79.5 -71.5t-107.5 -28.5q-33 0 -65.5 8t-57.5 26t-40.5 48t-15.5 75q0 43 15.5 75t42 53.5t62 32t75.5 10.5q54 0 97 -13.5t74 -30.5v87q0 44 -9 74t-28 48t-48 26t-68 8q-48 0 -84.5 -12t-71.5 -29l-8 19q35 17 74.5 29.5t90.5 12.5q43 0 75.5 -9
t54.5 -29t33 -53.5t11 -81.5v-363h-22zM421 253q-33 19 -75.5 32t-96.5 13q-36 0 -67.5 -9.5t-55 -28t-36.5 -47t-13 -66.5q0 -39 13.5 -66t36 -43t51 -23t59.5 -7q27 0 53.5 8t50.5 22t44.5 34.5t35.5 45.5v135zM362 635q-9 0 -15.5 6.5t-6.5 15.5t6.5 15.5t15.5 6.5
t15.5 -6.5t6.5 -15.5t-6.5 -15.5t-15.5 -6.5zM169 635q-10 0 -16.5 6.5t-6.5 15.5t6.5 15.5t16.5 6.5q8 0 14.5 -6.5t6.5 -15.5t-6.5 -15.5t-14.5 -6.5z" />
    <glyph glyph-name="aring" unicode="&#xe5;" horiz-adv-x="527" 
d="M421 0v89q-32 -43 -79.5 -71.5t-107.5 -28.5q-33 0 -65.5 8t-57.5 26t-40.5 48t-15.5 75q0 43 15.5 75t42 53.5t62 32t75.5 10.5q54 0 97 -13.5t74 -30.5v87q0 44 -9 74t-28 48t-48 26t-68 8q-48 0 -84.5 -12t-71.5 -29l-8 19q35 17 74.5 29.5t90.5 12.5q43 0 75.5 -9
t54.5 -29t33 -53.5t11 -81.5v-363h-22zM421 253q-33 19 -75.5 32t-96.5 13q-36 0 -67.5 -9.5t-55 -28t-36.5 -47t-13 -66.5q0 -39 13.5 -66t36 -43t51 -23t59.5 -7q27 0 53.5 8t50.5 22t44.5 34.5t35.5 45.5v135zM348 678q0 -35 -24 -58.5t-59 -23.5t-59 23.5t-24 58.5
t24 59t59 24t59 -24t24 -59zM265 746q-29 0 -48 -19.5t-19 -48.5t19 -48t48 -19t48 19t19 48t-19 48.5t-48 19.5z" />
    <glyph glyph-name="ae" unicode="&#xe6;" horiz-adv-x="892" 
d="M449 111q-36 -56 -89.5 -89t-127.5 -33q-32 0 -64 8t-57 26t-40.5 48t-15.5 75q0 43 15.5 75t42 53.5t61.5 32t74 10.5q54 0 99 -13t74 -30v86q0 88 -38 122t-117 34q-48 0 -85 -12t-69 -29l-8 19q35 17 73.5 29.5t89.5 12.5q84 0 127.5 -36.5t43.5 -106.5v-23
q8 37 26 68t42.5 52.5t55.5 33.5t66 12q44 0 81.5 -17.5t64.5 -51.5t42.5 -83.5t15.5 -113.5q0 -8 -1 -11h-389q0 -60 14.5 -106.5t39 -79t58.5 -49t73 -16.5q55 0 92.5 12t73.5 33l9 -16q-39 -23 -79 -35.5t-98 -12.5q-51 0 -99.5 29.5t-76.5 92.5zM810 277
q-2 118 -52.5 179t-130.5 61q-38 0 -71 -15.5t-58 -46t-40 -75.5t-16 -103h368zM441 130q-20 52 -20 123q-33 19 -76.5 32t-97.5 13q-36 0 -67 -9.5t-54 -28.5t-36 -47.5t-13 -65.5q0 -39 13.5 -66t35.5 -43t50.5 -23t58.5 -7q66 0 117.5 32t88.5 90z" />
    <glyph glyph-name="ccedilla" unicode="&#xe7;" horiz-adv-x="489" 
d="M247 -10q-37 4 -71 23t-60 52.5t-41.5 82.5t-15.5 114q0 69 18.5 120.5t48.5 85.5t68.5 51t78.5 17q56 0 91 -16t63 -39l-12 -16q-28 23 -60 37.5t-83 14.5q-37 0 -71.5 -16t-61 -48t-42.5 -79t-16 -110q0 -64 15.5 -112t42 -80t61 -48t72.5 -16q45 0 81.5 14.5
t63.5 39.5l12 -14q-29 -27 -68.5 -43t-89.5 -16h-6l-21 -44q10 7 21 11t31 4q22 0 40.5 -13t18.5 -42q0 -35 -25.5 -53.5t-69.5 -18.5q-30 0 -54.5 8t-44.5 22l9 14q20 -15 42.5 -21.5t45.5 -6.5q38 0 58.5 14.5t20.5 40.5q0 20 -13.5 31t-33.5 11q-34 0 -55 -23l-15 6
l27 61v0z" />
    <glyph glyph-name="egrave" unicode="&#xe8;" horiz-adv-x="537" 
d="M472 270q0 -7 -1 -11h-391q1 -60 15.5 -107t39.5 -79t59 -48.5t73 -16.5q55 0 92.5 12t73.5 33l9 -16q-38 -23 -78.5 -35.5t-98.5 -12.5q-41 0 -78 17t-65.5 51.5t-45.5 85.5t-17 120q0 65 16.5 116t44.5 86t66 53t81 18q45 0 82.5 -17.5t64.5 -51.5t42.5 -83.5
t15.5 -113.5zM451 277q-1 58 -15 103t-38.5 75.5t-57.5 46t-73 15.5q-38 0 -71.5 -15.5t-58.5 -46t-40.5 -75.5t-16.5 -103h371zM269 595l-115 137h30l103 -137h-18z" />
    <glyph glyph-name="eacute" unicode="&#xe9;" horiz-adv-x="537" 
d="M472 270q0 -7 -1 -11h-391q1 -60 15.5 -107t39.5 -79t59 -48.5t73 -16.5q55 0 92.5 12t73.5 33l9 -16q-38 -23 -78.5 -35.5t-98.5 -12.5q-41 0 -78 17t-65.5 51.5t-45.5 85.5t-17 120q0 65 16.5 116t44.5 86t66 53t81 18q45 0 82.5 -17.5t64.5 -51.5t42.5 -83.5
t15.5 -113.5zM451 277q-1 58 -15 103t-38.5 75.5t-57.5 46t-73 15.5q-38 0 -71.5 -15.5t-58.5 -46t-40.5 -75.5t-16.5 -103h371zM269 595h-18l103 137h30z" />
    <glyph glyph-name="ecircumflex" unicode="&#xea;" horiz-adv-x="537" 
d="M472 270q0 -7 -1 -11h-391q1 -60 15.5 -107t39.5 -79t59 -48.5t73 -16.5q55 0 92.5 12t73.5 33l9 -16q-38 -23 -78.5 -35.5t-98.5 -12.5q-41 0 -78 17t-65.5 51.5t-45.5 85.5t-17 120q0 65 16.5 116t44.5 86t66 53t81 18q45 0 82.5 -17.5t64.5 -51.5t42.5 -83.5
t15.5 -113.5zM451 277q-1 58 -15 103t-38.5 75.5t-57.5 46t-73 15.5q-38 0 -71.5 -15.5t-58.5 -46t-40.5 -75.5t-16.5 -103h371zM392 594l-123 122l-123 -122h-24l135 137h24l135 -137h-24z" />
    <glyph glyph-name="edieresis" unicode="&#xeb;" horiz-adv-x="537" 
d="M472 270q0 -7 -1 -11h-391q1 -60 15.5 -107t39.5 -79t59 -48.5t73 -16.5q55 0 92.5 12t73.5 33l9 -16q-38 -23 -78.5 -35.5t-98.5 -12.5q-41 0 -78 17t-65.5 51.5t-45.5 85.5t-17 120q0 65 16.5 116t44.5 86t66 53t81 18q45 0 82.5 -17.5t64.5 -51.5t42.5 -83.5
t15.5 -113.5zM451 277q-1 58 -15 103t-38.5 75.5t-57.5 46t-73 15.5q-38 0 -71.5 -15.5t-58.5 -46t-40.5 -75.5t-16.5 -103h371zM362 635q-9 0 -15.5 6.5t-6.5 15.5t6.5 15.5t15.5 6.5t15.5 -6.5t6.5 -15.5t-6.5 -15.5t-15.5 -6.5zM169 635q-10 0 -16.5 6.5t-6.5 15.5
t6.5 15.5t16.5 6.5q8 0 14.5 -6.5t6.5 -15.5t-6.5 -15.5t-14.5 -6.5z" />
    <glyph glyph-name="igrave" unicode="&#xec;" horiz-adv-x="208" 
d="M93 0v525h22v-525h-22zM97 595l-115 137h30l103 -137h-18z" />
    <glyph glyph-name="iacute" unicode="&#xed;" horiz-adv-x="208" 
d="M93 0v525h22v-525h-22zM115 595h-18l103 137h30z" />
    <glyph glyph-name="icircumflex" unicode="&#xee;" horiz-adv-x="208" 
d="M93 0v525h22v-525h-22zM229 585l-123 122l-123 -122h-24l135 137h24l135 -137h-24z" />
    <glyph glyph-name="idieresis" unicode="&#xef;" horiz-adv-x="208" 
d="M93 0v525h22v-525h-22zM203 630q-9 0 -15.5 6.5t-6.5 15.5t6.5 15.5t15.5 6.5t15.5 -6.5t6.5 -15.5t-6.5 -15.5t-15.5 -6.5zM10 630q-10 0 -16.5 6.5t-6.5 15.5t6.5 15.5t16.5 6.5q8 0 14.5 -6.5t6.5 -15.5t-6.5 -15.5t-14.5 -6.5z" />
    <glyph glyph-name="eth" unicode="&#xf0;" horiz-adv-x="574" 
d="M515 303q0 -155 -56.5 -234.5t-175.5 -79.5q-49 0 -90 17.5t-71 49.5t-46.5 77.5t-16.5 101.5t16 101.5t44.5 78t69 50t89.5 17.5q88 0 145 -40.5t72 -112.5q-2 33 -8.5 74t-23 83t-45 81.5t-72.5 69.5l-44 -50l-15 12l42 47q-63 39 -142 46v19q86 -8 154 -50l32 35
l15 -12l-31 -34q74 -51 116 -140t42 -207zM493 260q-6 101 -63.5 152t-148.5 51q-47 0 -84 -16.5t-63 -46.5t-40 -72t-14 -93q0 -52 14.5 -94t41.5 -71.5t64.5 -45.5t83.5 -16q101 0 152.5 64.5t56.5 187.5z" />
    <glyph glyph-name="ntilde" unicode="&#xf1;" horiz-adv-x="564" 
d="M458 0v320q0 104 -46 150.5t-124 46.5q-30 0 -62 -9.5t-57.5 -32t-42 -60t-16.5 -94.5v-321h-22v525h22v-114q15 63 65 94t117 31q42 0 76.5 -12t59.5 -37.5t38.5 -65.5t13.5 -97v-324h-22zM438 682q-4 -43 -26 -64.5t-55 -21.5q-22 0 -39.5 10t-35.5 23
q-22 16 -38.5 26.5t-36.5 10.5q-53 0 -63 -68h-18q4 43 26 64.5t55 21.5q22 0 40 -10t35 -23q22 -16 38.5 -26.5t36.5 -10.5q53 0 63 68h18v0z" />
    <glyph glyph-name="ograve" unicode="&#xf2;" horiz-adv-x="568" 
d="M509 263q0 -66 -17.5 -117.5t-48 -86t-71.5 -52.5t-88 -18t-88 18t-71.5 52.5t-48 86t-17.5 117.5t17.5 116.5t48 85.5t71.5 53t88 18t88 -18t71.5 -53t48 -85.5t17.5 -116.5zM487 263q0 62 -15.5 109.5t-43 79.5t-64.5 48.5t-80 16.5t-80 -16.5t-64.5 -48.5t-43 -79.5
t-15.5 -109.5t15.5 -109.5t43 -80t64.5 -49t80 -16.5t80 16.5t64.5 49t43 80t15.5 109.5zM283 595l-115 137h30l103 -137h-18z" />
    <glyph glyph-name="oacute" unicode="&#xf3;" horiz-adv-x="568" 
d="M509 263q0 -66 -17.5 -117.5t-48 -86t-71.5 -52.5t-88 -18t-88 18t-71.5 52.5t-48 86t-17.5 117.5t17.5 116.5t48 85.5t71.5 53t88 18t88 -18t71.5 -53t48 -85.5t17.5 -116.5zM487 263q0 62 -15.5 109.5t-43 79.5t-64.5 48.5t-80 16.5t-80 -16.5t-64.5 -48.5t-43 -79.5
t-15.5 -109.5t15.5 -109.5t43 -80t64.5 -49t80 -16.5t80 16.5t64.5 49t43 80t15.5 109.5zM281 595h-18l103 137h30z" />
    <glyph glyph-name="ocircumflex" unicode="&#xf4;" horiz-adv-x="568" 
d="M509 263q0 -66 -17.5 -117.5t-48 -86t-71.5 -52.5t-88 -18t-88 18t-71.5 52.5t-48 86t-17.5 117.5t17.5 116.5t48 85.5t71.5 53t88 18t88 -18t71.5 -53t48 -85.5t17.5 -116.5zM487 263q0 62 -15.5 109.5t-43 79.5t-64.5 48.5t-80 16.5t-80 -16.5t-64.5 -48.5t-43 -79.5
t-15.5 -109.5t15.5 -109.5t43 -80t64.5 -49t80 -16.5t80 16.5t64.5 49t43 80t15.5 109.5zM405 594l-123 122l-123 -122h-24l135 137h24l135 -137h-24z" />
    <glyph glyph-name="otilde" unicode="&#xf5;" horiz-adv-x="568" 
d="M509 263q0 -66 -17.5 -117.5t-48 -86t-71.5 -52.5t-88 -18t-88 18t-71.5 52.5t-48 86t-17.5 117.5t17.5 116.5t48 85.5t71.5 53t88 18t88 -18t71.5 -53t48 -85.5t17.5 -116.5zM487 263q0 62 -15.5 109.5t-43 79.5t-64.5 48.5t-80 16.5t-80 -16.5t-64.5 -48.5t-43 -79.5
t-15.5 -109.5t15.5 -109.5t43 -80t64.5 -49t80 -16.5t80 16.5t64.5 49t43 80t15.5 109.5zM438 682q-4 -43 -26 -64.5t-55 -21.5q-22 0 -39.5 10t-35.5 23q-22 16 -38.5 26.5t-36.5 10.5q-53 0 -63 -68h-18q4 43 26 64.5t55 21.5q22 0 40 -10t35 -23q22 -16 38.5 -26.5
t36.5 -10.5q53 0 63 68h18v0z" />
    <glyph glyph-name="odieresis" unicode="&#xf6;" horiz-adv-x="568" 
d="M509 263q0 -66 -17.5 -117.5t-48 -86t-71.5 -52.5t-88 -18t-88 18t-71.5 52.5t-48 86t-17.5 117.5t17.5 116.5t48 85.5t71.5 53t88 18t88 -18t71.5 -53t48 -85.5t17.5 -116.5zM487 263q0 62 -15.5 109.5t-43 79.5t-64.5 48.5t-80 16.5t-80 -16.5t-64.5 -48.5t-43 -79.5
t-15.5 -109.5t15.5 -109.5t43 -80t64.5 -49t80 -16.5t80 16.5t64.5 49t43 80t15.5 109.5zM379 634q-9 0 -15.5 6.5t-6.5 15.5t6.5 15.5t15.5 6.5t15.5 -6.5t6.5 -15.5t-6.5 -15.5t-15.5 -6.5zM186 634q-10 0 -16.5 6.5t-6.5 15.5t6.5 15.5t16.5 6.5q8 0 14.5 -6.5t6.5 -15.5
t-6.5 -15.5t-14.5 -6.5z" />
    <glyph glyph-name="divide" unicode="&#xf7;" 
d="M549 241q-2 -2 -3.5 0t-0.5 4l98 94h-276v-311l94 98q2 1 4 -0.5t1 -3.5l-108 -137l-108 137q-2 2 0 3.5t4 0.5l94 -98v311h-277l99 -94q1 -2 -0.5 -4t-3.5 0l-138 108l138 108q2 1 3.5 -1t0.5 -4l-99 -93h277v313l-94 -98q-2 -1 -4 0.5t0 3.5l108 137l108 -137
q1 -2 -1 -3.5t-4 -0.5l-94 98v-313h276l-98 93q-1 2 0.5 4t3.5 1l137 -108z" />
    <glyph glyph-name="oslash" unicode="&#xf8;" horiz-adv-x="568" 
d="M154 31q-43 34 -69 92t-26 140q0 66 17.5 116.5t48 85.5t71.5 53t88 18q65 0 116 -33l37 72h19l-43 -82q44 -34 70 -91.5t26 -138.5q0 -66 -17.5 -117.5t-48 -86t-71.5 -52.5t-88 -18q-65 0 -116 33l-37 -72h-19zM391 485q-47 32 -107 32q-43 0 -80 -16.5t-64.5 -48.5
t-43 -79.5t-15.5 -109.5q0 -75 22.5 -128.5t60.5 -84.5zM177 40q47 -32 107 -32q43 0 80 16.5t64.5 49t43 80t15.5 109.5q0 75 -22.5 128t-60.5 84z" />
    <glyph glyph-name="ugrave" unicode="&#xf9;" horiz-adv-x="564" 
d="M106 525v-320q0 -104 46 -150.5t124 -46.5q30 0 62 9t57.5 31.5t42 60.5t16.5 95v321h22v-525h-22v114q-15 -63 -65 -94t-117 -31q-42 0 -76.5 12t-59.5 37.5t-38.5 65.5t-13.5 97v324h22zM275 588l-115 137h30l103 -137h-18z" />
    <glyph glyph-name="uacute" unicode="&#xfa;" horiz-adv-x="564" 
d="M106 525v-320q0 -104 46 -150.5t124 -46.5q30 0 62 9t57.5 31.5t42 60.5t16.5 95v321h22v-525h-22v114q-15 -63 -65 -94t-117 -31q-42 0 -76.5 12t-59.5 37.5t-38.5 65.5t-13.5 97v324h22zM279 588h-18l103 137h30z" />
    <glyph glyph-name="ucircumflex" unicode="&#xfb;" horiz-adv-x="564" 
d="M106 525v-320q0 -104 46 -150.5t124 -46.5q30 0 62 9t57.5 31.5t42 60.5t16.5 95v321h22v-525h-22v114q-15 -63 -65 -94t-117 -31q-42 0 -76.5 12t-59.5 37.5t-38.5 65.5t-13.5 97v324h22zM402 595l-123 122l-123 -122h-24l135 137h24l135 -137h-24z" />
    <glyph glyph-name="udieresis" unicode="&#xfc;" horiz-adv-x="564" 
d="M106 525v-320q0 -104 46 -150.5t124 -46.5q30 0 62 9t57.5 31.5t42 60.5t16.5 95v321h22v-525h-22v114q-15 -63 -65 -94t-117 -31q-42 0 -76.5 12t-59.5 37.5t-38.5 65.5t-13.5 97v324h22zM380 632q-9 0 -15.5 6.5t-6.5 15.5t6.5 15.5t15.5 6.5t15.5 -6.5t6.5 -15.5
t-6.5 -15.5t-15.5 -6.5zM187 632q-10 0 -16.5 6.5t-6.5 15.5t6.5 15.5t16.5 6.5q8 0 14.5 -6.5t6.5 -15.5t-6.5 -15.5t-14.5 -6.5z" />
    <glyph glyph-name="yacute" unicode="&#xfd;" horiz-adv-x="501" 
d="M46 525h22l182 -495l183 495h22l-263 -710h-22l69 187zM259 586h-18l103 137h30z" />
    <glyph glyph-name="thorn" unicode="&#xfe;" horiz-adv-x="549" 
d="M490 265q0 -72 -14.5 -124t-41 -86t-63.5 -50t-81 -16q-57 0 -102.5 30t-77.5 78v-272l-22 -12v904l22 12v-301q32 47 78.5 77.5t104.5 30.5q44 0 80 -15.5t62 -48.5t40.5 -84t14.5 -123zM469 265q0 66 -13 113.5t-36.5 78t-57 45.5t-74.5 15q-55 0 -100.5 -31t-77.5 -80
v-286q30 -48 76.5 -80t102.5 -32q83 0 131.5 61.5t48.5 195.5z" />
    <glyph glyph-name="ydieresis" unicode="&#xff;" horiz-adv-x="501" 
d="M46 525h22l182 -495l183 495h22l-263 -710h-22l69 187zM352 630q-9 0 -15.5 6.5t-6.5 15.5t6.5 15.5t15.5 6.5t15.5 -6.5t6.5 -15.5t-6.5 -15.5t-15.5 -6.5zM159 630q-10 0 -16.5 6.5t-6.5 15.5t6.5 15.5t16.5 6.5q8 0 14.5 -6.5t6.5 -15.5t-6.5 -15.5t-14.5 -6.5z" />
    <glyph glyph-name="dotlessi" unicode="&#x131;" horiz-adv-x="208" 
d="M93 0v525h22v-525h-22z" />
    <glyph glyph-name="Lslash" unicode="&#x141;" horiz-adv-x="521" 
d="M110 0v273l-62 -53v26l62 52v402h22v-385l167 143v-26l-167 -142v-270h345v-20h-367z" />
    <glyph glyph-name="lslash" unicode="&#x142;" horiz-adv-x="225" 
d="M123 309v-309h-21v292l-53 -45v26l53 45v399l21 12v-394l53 45v-26z" />
    <glyph glyph-name="OE" unicode="&#x152;" horiz-adv-x="1054" 
d="M625 0v229q-10 -56 -33.5 -100.5t-57.5 -75.5t-78 -47.5t-96 -16.5q-62 0 -114.5 25t-90.5 71.5t-59.5 113.5t-21.5 151t21.5 151t59.5 113.5t90.5 71.5t114.5 25q103 0 174 -63.5t91 -176.5v229h372v-20h-350v-297h217v-20h-217v-343h365v-20h-387zM625 350
q0 80 -20 143.5t-55.5 107.5t-84 67t-105.5 23t-105 -23t-83.5 -67t-55.5 -107t-20 -144q0 -80 20 -143.5t55.5 -107.5t84 -67t105.5 -23t105 23t83.5 67t55.5 107t20 144z" />
    <glyph glyph-name="oe" unicode="&#x153;" horiz-adv-x="960" 
d="M896 259h-391q1 -60 15.5 -107t39.5 -79t58.5 -48.5t72.5 -16.5q55 0 92.5 12t73.5 33l9 -16q-39 -23 -79 -35.5t-98 -12.5q-36 0 -69 14t-59 40.5t-43.5 65t-23.5 87.5q-6 -49 -25 -87.5t-46.5 -65t-63.5 -40.5t-77 -14q-46 0 -86.5 18t-71 52.5t-48 86t-17.5 117.5
t17.5 116.5t48 85.5t71.5 53t87 18q40 0 76 -14t64 -40.5t47 -65t25 -86.5q6 49 23.5 87t43.5 64.5t59 40.5t70 14q44 0 81.5 -17.5t65 -51.5t43 -83.5t15.5 -113.5v-11zM874 277q-1 58 -15 103t-38.5 75.5t-57.5 46t-72 15.5q-38 0 -71 -15.5t-58 -46t-40.5 -75.5
t-16.5 -103h369zM485 263q0 62 -15.5 109.5t-43 79.5t-64.5 48.5t-79 16.5q-43 0 -80 -16.5t-64.5 -48.5t-43 -79.5t-15.5 -109.5t15.5 -109.5t43 -80t64.5 -49t80 -16.5q42 0 79 16.5t64.5 49t43 80t15.5 109.5z" />
    <glyph glyph-name="Scaron" unicode="&#x160;" horiz-adv-x="565" 
d="M486 170q0 -45 -16 -78.5t-44 -56.5t-66 -34.5t-82 -11.5q-69 0 -121 20.5t-95 54.5l12 16q45 -35 92.5 -53.5t112.5 -18.5q38 0 72 9.5t59 29.5t39.5 50.5t14.5 71.5q0 33 -10 58.5t-32.5 46.5t-60.5 40t-93 40q-57 21 -94 40.5t-59 41t-31 47.5t-9 60t12.5 64.5
t37.5 53.5t63 36.5t88 13.5q63 0 111.5 -17.5t87.5 -43.5l-12 -17q-38 26 -82.5 42.5t-105.5 16.5q-47 0 -80.5 -12.5t-55 -32.5t-32 -47t-10.5 -55q0 -30 8 -53.5t28.5 -43t56 -37.5t90.5 -39q57 -21 96.5 -41.5t63.5 -44t35 -51.5t11 -65zM152 884l123 -122l123 122h24
l-135 -137h-24l-135 137h24z" />
    <glyph glyph-name="scaron" unicode="&#x161;" horiz-adv-x="435" 
d="M373 123q0 -65 -44.5 -99.5t-118.5 -34.5q-51 0 -90 15.5t-71 40.5l11 16q31 -23 67 -38t83 -15q67 0 104.5 30t37.5 85q0 24 -6.5 42t-22 34t-42.5 31.5t-68 32.5q-42 17 -70 32.5t-45.5 32.5t-25 38t-7.5 50q0 25 9.5 47t28.5 38t45.5 25.5t61.5 9.5q55 0 92 -14
t61 -34l-12 -16q-24 20 -58.5 32.5t-83.5 12.5q-58 0 -90.5 -29.5t-32.5 -70.5q0 -24 6.5 -42t22 -33t42 -29t66.5 -31q43 -18 71.5 -34t46 -34t25 -39.5t7.5 -51.5zM93 732l123 -122l123 122h24l-135 -137h-24l-135 137h24z" />
    <glyph glyph-name="Ydieresis" unicode="&#x178;" horiz-adv-x="619" 
d="M320 294v-294h-22v294l-237 406h25l224 -383l223 383h25zM405 779q-9 0 -15.5 6.5t-6.5 15.5t6.5 15.5t15.5 6.5t15.5 -6.5t6.5 -15.5t-6.5 -15.5t-15.5 -6.5zM212 779q-10 0 -16.5 6.5t-6.5 15.5t6.5 15.5t16.5 6.5q8 0 14.5 -6.5t6.5 -15.5t-6.5 -15.5t-14.5 -6.5z" />
    <glyph glyph-name="Zcaron" unicode="&#x17d;" horiz-adv-x="589" 
d="M61 0v20l429 660h-408v20h433v-20l-429 -660h429v-20h-454zM172 882l123 -122l123 122h24l-135 -137h-24l-135 137h24z" />
    <glyph glyph-name="zcaron" unicode="&#x17e;" horiz-adv-x="490" 
d="M60 0v16l336 491h-305v18h330v-16l-336 -491h336v-18h-361zM132 732l123 -122l123 122h24l-135 -137h-24l-135 137h24z" />
    <glyph glyph-name="florin" unicode="&#x192;" horiz-adv-x="353" 
d="M303 679q-11 5 -27.5 8.5t-37.5 3.5q-35 0 -60 -21t-25 -77v-68h136v-18h-136v-682l-21 -12v694h-82v18h82v68q0 33 8.5 55.5t22.5 36.5t33.5 20t40.5 6q24 0 40.5 -3.5t25.5 -7.5v-21v0z" />
    <glyph glyph-name="circumflex" unicode="&#x2c6;" horiz-adv-x="500" 
d="M373 595l-123 122l-123 -122h-24l135 137h24l135 -137h-24z" />
    <glyph glyph-name="caron" unicode="&#x2c7;" horiz-adv-x="500" 
d="M127 732l123 -122l123 122h24l-135 -137h-24l-135 137h24z" />
    <glyph glyph-name="breve" unicode="&#x2d8;" horiz-adv-x="500" 
d="M397 732q-7 -66 -45.5 -103t-101.5 -37t-101.5 37t-45.5 103h18q7 -60 40 -91t89 -31q55 0 88.5 31t40.5 91h18v0z" />
    <glyph glyph-name="dotaccent" unicode="&#x2d9;" horiz-adv-x="500" 
d="M250 641q-9 0 -15.5 6.5t-6.5 15.5t6.5 15.5t15.5 6.5t15.5 -6.5t6.5 -15.5t-6.5 -15.5t-15.5 -6.5z" />
    <glyph glyph-name="ring" unicode="&#x2da;" horiz-adv-x="500" 
d="M333 678q0 -35 -24 -58.5t-59 -23.5t-59 23.5t-24 58.5t24 59t59 24t59 -24t24 -59zM250 746q-29 0 -48 -19.5t-19 -48.5t19 -48t48 -19t48 19t19 48t-19 48.5t-48 19.5z" />
    <glyph glyph-name="ogonek" unicode="&#x2db;" horiz-adv-x="500" 
d="M362 -164q-29 -15 -55 -22t-57 -7q-45 0 -68.5 21t-23.5 57q0 32 20.5 61.5t54.5 53.5h26q-38 -25 -60.5 -55.5t-22.5 -57.5q0 -34 20 -49t54 -15q28 0 53.5 6.5t52.5 20.5l6 -14v0z" />
    <glyph glyph-name="tilde" unicode="&#x2dc;" horiz-adv-x="500" 
d="M406 682q-4 -43 -26 -64.5t-55 -21.5q-22 0 -39.5 10t-35.5 23q-22 16 -38.5 26.5t-36.5 10.5q-53 0 -63 -68h-18q4 43 26 64.5t55 21.5q22 0 40 -10t35 -23q22 -16 38.5 -26.5t36.5 -10.5q53 0 63 68h18v0z" />
    <glyph glyph-name="hungarumlaut" unicode="&#x2dd;" horiz-adv-x="500" 
d="M292 595h-18l101 137h28zM128 595h-18l101 137h28z" />
    <glyph glyph-name="pi" unicode="&#x3c0;" horiz-adv-x="836" 
d="M779 350q0 -79 -27 -145.5t-75.5 -114.5t-114.5 -74.5t-144 -26.5t-144 26.5t-114.5 74.5t-75.5 114.5t-27 145.5t27 145.5t75.5 114.5t114.5 74.5t144 26.5t144 -26.5t114.5 -74.5t75.5 -114.5t27 -145.5zM760 350q0 75 -25.5 138t-71.5 108.5t-108.5 71t-136.5 25.5
t-136.5 -25.5t-108.5 -71t-71.5 -108.5t-25.5 -138t25.5 -138t71.5 -108.5t108.5 -71t136.5 -25.5t136.5 25.5t108.5 71t71.5 108.5t25.5 138zM573 433q0 -63 -37.5 -91.5t-105.5 -28.5h-95v-176h-21v413h125q60 0 97 -26.5t37 -90.5zM552 434q0 54 -30 76t-84 22h-103v-200
h95q60 0 91 24t31 78z" />
    <glyph glyph-name="endash" unicode="&#x2013;" horiz-adv-x="413" 
d="M52 353v21h309v-21h-309z" />
    <glyph glyph-name="emdash" unicode="&#x2014;" horiz-adv-x="565" 
d="M52 353v21h461v-21h-461z" />
    <glyph glyph-name="quoteleft" unicode="&#x2018;" horiz-adv-x="193" 
d="M99 532h-28l32 168h16z" />
    <glyph glyph-name="quoteright" unicode="&#x2019;" horiz-adv-x="193" 
d="M91 532h-16l20 168h27z" />
    <glyph glyph-name="quotesinglbase" unicode="&#x201a;" horiz-adv-x="193" 
d="M85 -94h-16l19 167h28z" />
    <glyph glyph-name="quotedblleft" unicode="&#x201c;" horiz-adv-x="359" 
d="M265 532h-28l32 168h15zM99 532h-28l32 168h16z" />
    <glyph glyph-name="quotedblright" unicode="&#x201d;" horiz-adv-x="359" 
d="M256 532h-15l19 168h28zM91 532h-16l20 168h27z" />
    <glyph glyph-name="quotedblbase" unicode="&#x201e;" horiz-adv-x="359" 
d="M250 -94h-16l20 167h28zM85 -94h-16l19 167h28z" />
    <glyph glyph-name="dagger" unicode="&#x2020;" horiz-adv-x="513" 
d="M268 421v-521h-22v521h-199v20h199v259h22v-259h198v-20h-198z" />
    <glyph glyph-name="daggerdbl" unicode="&#x2021;" horiz-adv-x="513" 
d="M268 159v-259h-22v259h-199v19h199v244h-199v19h199v259h22v-259h198v-19h-198v-244h198v-19h-198z" />
    <glyph glyph-name="bullet" unicode="&#x2022;" horiz-adv-x="283" 
d="M196 366q0 -23 -15.5 -38.5t-38.5 -15.5t-38.5 15.5t-15.5 38.5t15.5 39t38.5 16t38.5 -16t15.5 -39z" />
    <glyph glyph-name="ellipsis" unicode="&#x2026;" horiz-adv-x="570" 
d="M496 20q0 -10 -7 -16.5t-16 -6.5q-10 0 -16.5 6.5t-6.5 16.5t6.5 17t16.5 7q9 0 16 -7t7 -17zM308 20q0 -10 -7 -16.5t-16 -6.5q-10 0 -16.5 6.5t-6.5 16.5t6.5 17t16.5 7q9 0 16 -7t7 -17zM120 20q0 -10 -7 -16.5t-16 -6.5q-10 0 -16.5 6.5t-6.5 16.5t6.5 17t16.5 7
q9 0 16 -7t7 -17z" />
    <glyph glyph-name="perthousand" unicode="&#x2030;" horiz-adv-x="1231" 
d="M356 508q0 -95 -39 -148t-108 -53t-108 52.5t-39 148.5q0 97 39 150t108 53q70 0 108.5 -53t38.5 -150zM226 0h-21l435 700h21zM1183 191q0 -96 -39.5 -149t-108.5 -53t-107.5 52.5t-38.5 149.5q0 96 39 149t108 53t108 -53t39 -149zM804 191q0 -96 -39 -149t-108 -53
t-108 52.5t-39 149.5q0 96 39 149t108 53t108 -53t39 -149zM336 508q0 89 -33.5 137t-93.5 48t-93.5 -48t-33.5 -137q0 -88 33.5 -135.5t93.5 -47.5t93.5 48.5t33.5 134.5zM1163 191q0 88 -33.5 136t-93.5 48t-93.5 -48t-33.5 -136t33.5 -136t93.5 -48t93.5 48.5t33.5 135.5
zM784 191q0 88 -33.5 136t-93.5 48t-93.5 -48t-33.5 -136t33.5 -136t93.5 -48t93.5 48.5t33.5 135.5z" />
    <glyph glyph-name="guilsinglleft" unicode="&#x2039;" horiz-adv-x="328" 
d="M244 0l-203 261v2l203 262h24l-203 -263l203 -262h-24z" />
    <glyph glyph-name="guilsinglright" unicode="&#x203a;" horiz-adv-x="328" 
d="M85 0h-25l203 262l-203 263h25l202 -262v-2z" />
    <glyph glyph-name="fraction" unicode="&#x2044;" horiz-adv-x="452" 
d="M-15 0h-24l506 700h24z" />
    <glyph glyph-name="Euro" unicode="&#x20ac;" horiz-adv-x="582" 
d="M98 280q7 -63 26.5 -113t50 -85.5t72.5 -54t93 -18.5t91 19t73 55l14 -13q-33 -38 -77 -59.5t-101 -21.5q-62 0 -111.5 25t-84 71.5t-53 113.5t-18.5 151q0 85 20.5 152t56.5 113.5t85 71t106 24.5q58 0 98.5 -18.5t69.5 -53.5l-17 -13q-28 33 -63.5 49t-88.5 16
q-47 0 -87.5 -18t-72 -52.5t-52.5 -83.5t-29 -112h279v-20h-281q-1 -14 -1.5 -27t-0.5 -28q0 -13 0.5 -25t1.5 -25h281v-20h-280v0z" />
    <glyph glyph-name="trademark" unicode="&#x2122;" horiz-adv-x="806" 
d="M177 687v-402h-15v402h-132v13h280v-13h-133zM732 285v383l-161 -387h-3l-162 387v-383h-14v415h16l162 -388l160 388h16v-415h-14z" />
    <glyph glyph-name="Omega" unicode="&#x2126;" horiz-adv-x="366" 
d="M290 575q2 -2 -0.5 -4t-4.5 -1l-92 99v-669h-20v669l-92 -99q-2 -1 -4.5 1t-0.5 4l107 140l107 -140v0z" />
    <glyph glyph-name="partialdiff" unicode="&#x2202;" horiz-adv-x="366" 
d="M183 -15l-107 140q-2 2 0.5 4t4.5 1l92 -99v638l-92 -99q-2 -1 -4.5 1t-0.5 4l107 140l107 -140q2 -2 -0.5 -4t-4.5 -1l-92 99v-638l92 99q2 1 4.5 -1t0.5 -4z" />
    <glyph glyph-name="Delta" unicode="&#x2206;" horiz-adv-x="600" 
d="M90 339l99 -93q1 -2 -1 -4t-4 0l-140 107l140 107q2 1 4 -1t1 -4l-99 -92h445v-20h-445z" />
    <glyph glyph-name="product" unicode="&#x220f;" 
d="M549 241q-2 -2 -3.5 0t-0.5 4l98 94h-276v-311l94 98q2 1 4 -0.5t1 -3.5l-108 -137l-108 137q-2 2 0 3.5t4 0.5l94 -98v311h-277l99 -94q1 -2 -0.5 -4t-3.5 0l-138 108l138 108q2 1 3.5 -1t0.5 -4l-99 -93h277v313l-94 -98q-2 -1 -4 0.5t0 3.5l108 137l108 -137
q1 -2 -1 -3.5t-4 -0.5l-94 98v-313h276l-98 93q-1 2 0.5 4t3.5 1l137 -108z" />
    <glyph glyph-name="summation" unicode="&#x2211;" 
d="M549 241q-2 -2 -3.5 0t-0.5 4l98 94h-276v-311l94 98q2 1 4 -0.5t1 -3.5l-108 -137l-108 137q-2 2 0 3.5t4 0.5l94 -98v311h-277l99 -94q1 -2 -0.5 -4t-3.5 0l-138 108l138 108q2 1 3.5 -1t0.5 -4l-99 -93h277v313l-94 -98q-2 -1 -4 0.5t0 3.5l108 137l108 -137
q1 -2 -1 -3.5t-4 -0.5l-94 98v-313h276l-98 93q-1 2 0.5 4t3.5 1l137 -108z" />
    <glyph glyph-name="minus" unicode="&#x2212;" 
d="M549 241q-2 -2 -3.5 0t-0.5 4l98 94h-276v-311l94 98q2 1 4 -0.5t1 -3.5l-108 -137l-108 137q-2 2 0 3.5t4 0.5l94 -98v311h-277l99 -94q1 -2 -0.5 -4t-3.5 0l-138 108l138 108q2 1 3.5 -1t0.5 -4l-99 -93h277v313l-94 -98q-2 -1 -4 0.5t0 3.5l108 137l108 -137
q1 -2 -1 -3.5t-4 -0.5l-94 98v-313h276l-98 93q-1 2 0.5 4t3.5 1l137 -108z" />
    <glyph glyph-name="radical" unicode="&#x221a;" horiz-adv-x="535" 
d="M224 0h-21l-157 340h22l145 -315l253 675h22z" />
    <glyph glyph-name="infinity" unicode="&#x221e;" 
d="M549 241q-2 -2 -3.5 0t-0.5 4l98 94h-276v-311l94 98q2 1 4 -0.5t1 -3.5l-108 -137l-108 137q-2 2 0 3.5t4 0.5l94 -98v311h-277l99 -94q1 -2 -0.5 -4t-3.5 0l-138 108l138 108q2 1 3.5 -1t0.5 -4l-99 -93h277v313l-94 -98q-2 -1 -4 0.5t0 3.5l108 137l108 -137
q1 -2 -1 -3.5t-4 -0.5l-94 98v-313h276l-98 93q-1 2 0.5 4t3.5 1l137 -108z" />
    <glyph glyph-name="integral" unicode="&#x222b;" horiz-adv-x="549" 
d="M438 0v91q-32 -44 -77.5 -73t-104.5 -29q-44 0 -80.5 15.5t-62.5 48.5t-40.5 84t-14.5 123t14.5 124t41 86t63.5 50t81 16q57 0 102.5 -28t77.5 -72v89h22v-525h-22zM438 405q-30 48 -77 80t-101 32q-84 0 -132 -62t-48 -195q0 -131 48.5 -191.5t131.5 -60.5q54 0 100 31
t78 80v286z" />
    <glyph glyph-name="approxequal" unicode="&#x2248;" horiz-adv-x="366" 
d="M183 -15l-107 140q-2 2 0.5 4t4.5 1l92 -99v669h20v-669l92 99q2 1 4.5 -1t0.5 -4z" />
    <glyph glyph-name="notequal" unicode="&#x2260;" 
d="M549 241q-2 -2 -3.5 0t-0.5 4l98 94h-276v-311l94 98q2 1 4 -0.5t1 -3.5l-108 -137l-108 137q-2 2 0 3.5t4 0.5l94 -98v311h-277l99 -94q1 -2 -0.5 -4t-3.5 0l-138 108l138 108q2 1 3.5 -1t0.5 -4l-99 -93h277v313l-94 -98q-2 -1 -4 0.5t0 3.5l108 137l108 -137
q1 -2 -1 -3.5t-4 -0.5l-94 98v-313h276l-98 93q-1 2 0.5 4t3.5 1l137 -108z" />
    <glyph glyph-name="lessequal" unicode="&#x2264;" 
d="M549 241q-2 -2 -3.5 0t-0.5 4l98 94h-276v-311l94 98q2 1 4 -0.5t1 -3.5l-108 -137l-108 137q-2 2 0 3.5t4 0.5l94 -98v311h-277l99 -94q1 -2 -0.5 -4t-3.5 0l-138 108l138 108q2 1 3.5 -1t0.5 -4l-99 -93h277v313l-94 -98q-2 -1 -4 0.5t0 3.5l108 137l108 -137
q1 -2 -1 -3.5t-4 -0.5l-94 98v-313h276l-98 93q-1 2 0.5 4t3.5 1l137 -108z" />
    <glyph glyph-name="greaterequal" unicode="&#x2265;" 
d="M549 241q-2 -2 -3.5 0t-0.5 4l98 94h-276v-311l94 98q2 1 4 -0.5t1 -3.5l-108 -137l-108 137q-2 2 0 3.5t4 0.5l94 -98v311h-277l99 -94q1 -2 -0.5 -4t-3.5 0l-138 108l138 108q2 1 3.5 -1t0.5 -4l-99 -93h277v313l-94 -98q-2 -1 -4 0.5t0 3.5l108 137l108 -137
q1 -2 -1 -3.5t-4 -0.5l-94 98v-313h276l-98 93q-1 2 0.5 4t3.5 1l137 -108z" />
    <glyph glyph-name="lozenge" unicode="&#x25ca;" 
d="M549 241q-2 -2 -3.5 0t-0.5 4l98 94h-276v-311l94 98q2 1 4 -0.5t1 -3.5l-108 -137l-108 137q-2 2 0 3.5t4 0.5l94 -98v311h-277l99 -94q1 -2 -0.5 -4t-3.5 0l-138 108l138 108q2 1 3.5 -1t0.5 -4l-99 -93h277v313l-94 -98q-2 -1 -4 0.5t0 3.5l108 137l108 -137
q1 -2 -1 -3.5t-4 -0.5l-94 98v-313h276l-98 93q-1 2 0.5 4t3.5 1l137 -108z" />
    <glyph glyph-name="fi" unicode="&#xfb01;" horiz-adv-x="540" 
d="M456 687q0 -8 -5.5 -13.5t-12.5 -5.5q-9 0 -14.5 5.5t-5.5 13.5q0 19 20 19q7 0 12.5 -5.5t5.5 -13.5zM298 693q-8 4 -25.5 8t-38.5 4q-34 0 -58 -20.5t-24 -76.5v-83h134v-19h-134v-506h-22v506h-82v19h82v81q0 33 8 56t22 36.5t32.5 19.5t39.5 6q25 0 40.5 -3.5
t25.5 -7.5v-20zM425 0v525h22v-525h-22z" />
    <glyph glyph-name="fl" unicode="&#xfb02;" horiz-adv-x="540" 
d="M425 0v717l22 12v-729h-22zM298 693q-8 4 -25.5 8t-38.5 4q-34 0 -58 -20.5t-24 -76.5v-83h134v-19h-134v-506h-22v506h-82v19h82v81q0 33 8 56t22 36.5t32.5 19.5t39.5 6q25 0 40.5 -3.5t25.5 -7.5v-20z" />
    <glyph glyph-name="NUL" horiz-adv-x="0" 
 />
    <glyph glyph-name="percent" horiz-adv-x="866" 
d="M356 508q0 -95 -39 -148t-108 -53t-108 52.5t-39 148.5q0 97 39 150t108 53q70 0 108.5 -53t38.5 -150zM226 0h-21l435 700h21zM804 191q0 -96 -39 -149t-108 -53t-108 52.5t-39 149.5q0 96 39 149t108 53t108 -53t39 -149zM336 508q0 89 -33.5 137t-93.5 48t-93.5 -48
t-33.5 -137q0 -88 33.5 -135.5t93.5 -47.5t93.5 48.5t33.5 134.5zM784 191q0 88 -33.5 136t-93.5 48t-93.5 -48t-33.5 -136t33.5 -136t93.5 -48t93.5 48.5t33.5 135.5z" />
    <glyph glyph-name="apple" 
d="M549 241q-2 -2 -3.5 0t-0.5 4l98 94h-276v-311l94 98q2 1 4 -0.5t1 -3.5l-108 -137l-108 137q-2 2 0 3.5t4 0.5l94 -98v311h-277l99 -94q1 -2 -0.5 -4t-3.5 0l-138 108l138 108q2 1 3.5 -1t0.5 -4l-99 -93h277v313l-94 -98q-2 -1 -4 0.5t0 3.5l108 137l108 -137
q1 -2 -1 -3.5t-4 -0.5l-94 98v-313h276l-98 93q-1 2 0.5 4t3.5 1l137 -108z" />
    </font>
</defs>
</svg>
